<svg xmlns="http://www.w3.org/2000/svg" width="18.34" height="14.535" viewBox="0 0 18.34 14.535">
  <g id="그룹_14569" data-name="그룹 14569" transform="translate(-1832.83 -6422.732)">
    <path id="패스_17660" data-name="패스 17660" d="M-21455.785-16230.82a.741.741,0,0,1-.441-.145.749.749,0,0,1-.164-1.048l7.264-9.947a.748.748,0,0,1,.605-.308h0a.749.749,0,0,1,.605.309l7.238,9.947a.75.75,0,0,1-.164,1.048.75.75,0,0,1-1.047-.165l-6.635-9.115-6.656,9.116A.748.748,0,0,1-21455.785-16230.82Z" transform="translate(23290.365 22668.088)" fill="#06092a"/>
    <path id="패스_17661" data-name="패스 17661" d="M-21455.49-20573.838h-16.84a.75.75,0,0,1-.75-.75.75.75,0,0,1,.75-.75h16.84a.75.75,0,0,1,.75.75A.75.75,0,0,1-21455.49-20573.838Z" transform="translate(23305.91 26998.07)" fill="#06092a"/>
  </g>
</svg>
