<svg xmlns="http://www.w3.org/2000/svg" xmlns:xlink="http://www.w3.org/1999/xlink" width="56.762" height="31.592" viewBox="0 0 56.762 31.592">
  <defs>
    <clipPath id="clip-path">
      <rect id="사각형_227" data-name="사각형 227" width="27.762" height="31.592" fill="none" stroke="#eb3323" stroke-linecap="round" stroke-linejoin="round" stroke-width="1.5"/>
    </clipPath>
    <clipPath id="clip-path-4">
      <rect id="사각형_227-2" data-name="사각형 227" width="27.762" height="31.592" fill="none" stroke="#2c4e5f" stroke-linecap="round" stroke-linejoin="round" stroke-width="1.5"/>
    </clipPath>
  </defs>
  <g id="그룹_14566" data-name="그룹 14566" transform="translate(24088.209 19971.305)">
    <g id="그룹_14564" data-name="그룹 14564" transform="translate(-24088.209 -19971.305)">
      <path id="패스_1244" data-name="패스 1244" d="M13.882,1.5,1.5,8.647,13.882,15.8l12.38-7.15Z" transform="translate(0 0)" fill="#fff" stroke="#eb3323" stroke-linecap="round" stroke-linejoin="round" stroke-width="1.5"/>
      <g id="그룹_160" data-name="그룹 160">
        <g id="그룹_159" data-name="그룹 159" clip-path="url(#clip-path)">
          <path id="패스_1245" data-name="패스 1245" d="M13.882,1.5,1.5,8.647,13.882,15.8l12.38-7.15Z" transform="translate(0 0)" fill="none" stroke="#eb3323" stroke-linecap="round" stroke-linejoin="round" stroke-width="1.5"/>
        </g>
      </g>
      <path id="패스_1246" data-name="패스 1246" d="M26.262,8.647,13.882,15.8v14.3l12.38-7.148Z" transform="translate(0 0)" fill="#fff" stroke="#eb3323" stroke-linecap="round" stroke-linejoin="round" stroke-width="1.5"/>
      <g id="그룹_162" data-name="그룹 162">
        <g id="그룹_161" data-name="그룹 161" clip-path="url(#clip-path)">
          <path id="패스_1247" data-name="패스 1247" d="M26.262,8.647,13.882,15.8v14.3l12.38-7.148Z" transform="translate(0 0)" fill="none" stroke="#eb3323" stroke-linecap="round" stroke-linejoin="round" stroke-width="1.5"/>
        </g>
      </g>
      <path id="패스_1248" data-name="패스 1248" d="M1.5,8.647v14.3l12.382,7.148V15.8Z" transform="translate(0 0)" fill="#fff" stroke="#eb3323" stroke-linecap="round" stroke-linejoin="round" stroke-width="1.5"/>
      <g id="그룹_164" data-name="그룹 164">
        <g id="그룹_163" data-name="그룹 163" clip-path="url(#clip-path)">
          <path id="패스_1249" data-name="패스 1249" d="M1.5,8.647v14.3l12.382,7.148V15.8Z" transform="translate(0 0)" fill="none" stroke="#eb3323" stroke-linecap="round" stroke-linejoin="round" stroke-width="1.5"/>
        </g>
      </g>
    </g>
    <g id="그룹_14565" data-name="그룹 14565" transform="translate(-24059.209 -19971.305)">
      <path id="패스_1244-2" data-name="패스 1244" d="M13.882,1.5,1.5,8.647,13.882,15.8l12.38-7.15Z" transform="translate(0 0)" fill="#fff" stroke="#2c4e5f" stroke-linecap="round" stroke-linejoin="round" stroke-width="1.5"/>
      <g id="그룹_160-2" data-name="그룹 160">
        <g id="그룹_159-2" data-name="그룹 159" clip-path="url(#clip-path-4)">
          <path id="패스_1245-2" data-name="패스 1245" d="M13.882,1.5,1.5,8.647,13.882,15.8l12.38-7.15Z" transform="translate(0 0)" fill="none" stroke="#2c4e5f" stroke-linecap="round" stroke-linejoin="round" stroke-width="1.5"/>
        </g>
      </g>
      <path id="패스_1246-2" data-name="패스 1246" d="M26.262,8.647,13.882,15.8v14.3l12.38-7.148Z" transform="translate(0 0)" fill="#fff" stroke="#2c4e5f" stroke-linecap="round" stroke-linejoin="round" stroke-width="1.5"/>
      <g id="그룹_162-2" data-name="그룹 162">
        <g id="그룹_161-2" data-name="그룹 161" clip-path="url(#clip-path-4)">
          <path id="패스_1247-2" data-name="패스 1247" d="M26.262,8.647,13.882,15.8v14.3l12.38-7.148Z" transform="translate(0 0)" fill="none" stroke="#2c4e5f" stroke-linecap="round" stroke-linejoin="round" stroke-width="1.5"/>
        </g>
      </g>
      <path id="패스_1248-2" data-name="패스 1248" d="M1.5,8.647v14.3l12.382,7.148V15.8Z" transform="translate(0 0)" fill="#fff" stroke="#2c4e5f" stroke-linecap="round" stroke-linejoin="round" stroke-width="1.5"/>
      <g id="그룹_164-2" data-name="그룹 164">
        <g id="그룹_163-2" data-name="그룹 163" clip-path="url(#clip-path-4)">
          <path id="패스_1249-2" data-name="패스 1249" d="M1.5,8.647v14.3l12.382,7.148V15.8Z" transform="translate(0 0)" fill="none" stroke="#2c4e5f" stroke-linecap="round" stroke-linejoin="round" stroke-width="1.5"/>
        </g>
      </g>
    </g>
  </g>
</svg>
