<svg xmlns="http://www.w3.org/2000/svg" width="26.262" height="30.092" viewBox="0 0 26.262 30.092">
  <g id="그룹_14568" data-name="그룹 14568" transform="translate(24024.459 19981.555)">
    <path id="패스_1244" data-name="패스 1244" d="M13.882.75a.75.75,0,0,1,.375.1L26.637,8a.75.75,0,0,1,0,1.3l-12.38,7.15a.75.75,0,0,1-.75,0L1.125,9.3a.75.75,0,0,1,0-1.3L13.507.85A.75.75,0,0,1,13.882.75Zm10.88,7.9L13.882,2.366,3,8.647l10.882,6.284Z" transform="translate(-24025.209 -19982.305)"/>
    <path id="패스_1246" data-name="패스 1246" d="M26.262,7.9a.75.75,0,0,1,.75.75v14.3a.75.75,0,0,1-.375.65l-12.38,7.148a.75.75,0,0,1-1.125-.65V15.8a.75.75,0,0,1,.375-.649L25.887,8A.75.75,0,0,1,26.262,7.9Zm-.75,14.613V9.947l-10.88,6.283V28.792Z" transform="translate(-24025.209 -19982.305)"/>
    <path id="패스_1248" data-name="패스 1248" d="M1.5,7.9a.749.749,0,0,1,.375.1l12.382,7.149a.75.75,0,0,1,.375.65v14.3a.75.75,0,0,1-1.125.65L1.125,23.593a.75.75,0,0,1-.375-.65V8.647A.75.75,0,0,1,1.5,7.9Zm11.632,8.332L2.25,9.947V22.51l10.882,6.282Z" transform="translate(-24025.209 -19982.305)"/>
  </g>
</svg>
