<svg xmlns="http://www.w3.org/2000/svg" width="15.054" height="12.764" viewBox="0 0 15.054 12.764">
  <g id="그룹_14535" data-name="그룹 14535" transform="translate(-0.4 -0.4)" opacity="0.2">
    <path id="패스_17773" data-name="패스 17773" d="M15.017,12.91v0Z" transform="translate(-7.09 -1.885)" fill="#fff" stroke="#000" stroke-linecap="round" stroke-linejoin="round" stroke-width="1.2"/>
    <line id="선_8742" data-name="선 8742" y1="8.183" transform="translate(7.927 2.842)" fill="none" stroke="#000" stroke-linecap="round" stroke-linejoin="round" stroke-width="1.2"/>
    <path id="패스_17774" data-name="패스 17774" d="M4.694,17.138V13.086H14.9v4.053" transform="translate(-1.868 -6.113)" fill="none" stroke="#000" stroke-linecap="round" stroke-linejoin="round" stroke-width="1.2"/>
    <rect id="사각형_9837" data-name="사각형 9837" width="3.684" height="3.684" transform="translate(6.085 1)" fill="#fff" stroke="#000" stroke-linecap="round" stroke-linejoin="round" stroke-width="1.2"/>
    <g id="그룹_14534" data-name="그룹 14534" transform="translate(1 1)">
      <g id="그룹_14536" data-name="그룹 14536" transform="translate(0)">
        <rect id="사각형_9838" data-name="사각형 9838" width="3.684" height="3.684" transform="translate(5.085)" fill="none" stroke="#000" stroke-linecap="round" stroke-linejoin="round" stroke-width="1.2"/>
        <path id="패스_17775" data-name="패스 17775" d="M25.885,19.712a1.539,1.539,0,1,1-1.539-1.539,1.539,1.539,0,0,1,1.539,1.539" transform="translate(-12.032 -9.687)" fill="#fff" stroke="#000" stroke-linecap="round" stroke-linejoin="round" stroke-width="1.2"/>
        <path id="패스_17776" data-name="패스 17776" d="M25.885,19.712a1.539,1.539,0,1,1-1.539-1.539A1.539,1.539,0,0,1,25.885,19.712Z" transform="translate(-12.032 -9.687)" fill="none" stroke="#000" stroke-linecap="round" stroke-linejoin="round" stroke-width="1.2"/>
        <path id="패스_17777" data-name="패스 17777" d="M14.981,19.712a1.539,1.539,0,1,1-1.539-1.539,1.539,1.539,0,0,1,1.539,1.539" transform="translate(-6.516 -9.687)" fill="#fff" stroke="#000" stroke-linecap="round" stroke-linejoin="round" stroke-width="1.2"/>
        <path id="패스_17778" data-name="패스 17778" d="M14.981,19.712a1.539,1.539,0,1,1-1.539-1.539A1.539,1.539,0,0,1,14.981,19.712Z" transform="translate(-6.516 -9.687)" fill="none" stroke="#000" stroke-linecap="round" stroke-linejoin="round" stroke-width="1.2"/>
        <path id="패스_17779" data-name="패스 17779" d="M4.077,19.712a1.539,1.539,0,1,1-1.539-1.539,1.539,1.539,0,0,1,1.539,1.539" transform="translate(-1 -9.687)" fill="#fff" stroke="#000" stroke-linecap="round" stroke-linejoin="round" stroke-width="1.2"/>
        <path id="패스_17780" data-name="패스 17780" d="M4.077,19.712a1.539,1.539,0,1,1-1.539-1.539A1.539,1.539,0,0,1,4.077,19.712Z" transform="translate(-1 -9.687)" fill="none" stroke="#000" stroke-linecap="round" stroke-linejoin="round" stroke-width="1.2"/>
      </g>
    </g>
  </g>
</svg>
