<svg xmlns="http://www.w3.org/2000/svg" width="198.049" height="161.48" viewBox="0 0 198.049 161.48">
  <g id="group_14477" data-name="group 14477" transform="translate(0.585 0.943)">
    <g id="group_157" data-name="group 157" transform="translate(-861.662 -2340.258)">
      <path id="path_132" data-name="path 132" d="M92.515,46.757A45.757,45.757,0,1,1,46.757,1,45.758,45.758,0,0,1,92.515,46.757" transform="translate(860.662 2339.258)" fill="#a5d0fd"/>
      <ellipse id="타원_17" data-name="타원 17" cx="45.711" cy="45.711" rx="45.711" ry="45.711" transform="translate(862.077 2340.314)" fill="none" stroke="#2c4e5f" stroke-linecap="round" stroke-linejoin="round" stroke-width="2"/>
      <path id="path_133" data-name="path 133" d="M78.6,70.616a15.2,15.2,0,0,0-15.16-15.16H40.007a15.2,15.2,0,0,0-15.16,15.16V84.1H78.6Z" transform="translate(855.959 2328.518)" fill="#f2f2f2"/>
      <path id="path_134" data-name="path 134" d="M78.6,70.616a15.2,15.2,0,0,0-15.16-15.16H40.007a15.2,15.2,0,0,0-15.16,15.16V84.1H78.6Z" transform="translate(855.959 2328.518)" fill="none" stroke="#2c4e5f" stroke-linecap="round" stroke-linejoin="round" stroke-width="2"/>
      <path id="path_135" data-name="path 135" d="M46.633,50.413,43.3,56.356l6.661,3.617,5.4-4.538v-.975l-4.824-1.723Z" transform="translate(852.318 2329.512)" fill="#f2f2f2"/>
      <path id="path_136" data-name="path 136" d="M46.633,50.413,43.3,56.356l6.661,3.617,5.4-4.538v-.975l-4.824-1.723Z" transform="translate(852.318 2329.512)" fill="none" stroke="#2c4e5f" stroke-linecap="round" stroke-linejoin="round" stroke-width="2"/>
      <path id="path_137" data-name="path 137" d="M67.053,50.413l3.331,5.944-6.661,3.617-5.4-4.538v-.975l4.824-1.723Z" transform="translate(849.355 2329.512)" fill="#f2f2f2"/>
      <path id="path_138" data-name="path 138" d="M67.053,50.413l3.331,5.944-6.661,3.617-5.4-4.538v-.975l4.824-1.723Z" transform="translate(849.355 2329.512)" fill="none" stroke="#2c4e5f" stroke-linecap="round" stroke-linejoin="round" stroke-width="2"/>
      <path id="path_139" data-name="path 139" d="M66.122,28.3a10.336,10.336,0,1,0-20.673,0v2.067H66.122Z" transform="translate(851.895 2335.912)" fill="#999"/>
      <path id="path_140" data-name="path 140" d="M66.122,28.3a10.336,10.336,0,1,0-20.673,0v2.067H66.122Z" transform="translate(851.895 2335.912)" fill="none" stroke="#2c4e5f" stroke-linecap="round" stroke-linejoin="round" stroke-width="2"/>
      <path id="path_141" data-name="path 141" d="M45.449,33.413v7.358a10.336,10.336,0,1,0,20.673,0V33.413Z" transform="translate(851.895 2332.865)" fill="#fff"/>
      <path id="path_142" data-name="path 142" d="M45.449,33.413v7.358a10.336,10.336,0,1,0,20.673,0V33.413Z" transform="translate(851.895 2332.865)" fill="none" stroke="#2c4e5f" stroke-linecap="round" stroke-linejoin="round" stroke-width="2"/>
      <path id="path_143" data-name="path 143" d="M59.412,64.654l2.23-4.234-4.46-3.75-4.46,3.75,2.23,4.234-2.421,11.37,4.651,14.3,4.651-14.3Z" transform="translate(850.498 2328.277)" fill="#a5d0fd"/>
      <path id="path_144" data-name="path 144" d="M59.412,64.654l2.23-4.234-4.46-3.75-4.46,3.75,2.23,4.234-2.421,11.37,4.651,14.3,4.651-14.3Z" transform="translate(850.498 2328.277)" fill="none" stroke="#2c4e5f" stroke-linecap="round" stroke-linejoin="round" stroke-width="2"/>
      <line id="선_40" data-name="선 40" y1="6.769" transform="translate(890.165 2404.818)" fill="#f2f2f2"/>
      <line id="선_41" data-name="선 41" y1="6.769" transform="translate(890.165 2404.818)" fill="none" stroke="#2c4e5f" stroke-linecap="round" stroke-linejoin="round" stroke-width="2"/>
      <line id="선_42" data-name="선 42" y1="6.769" transform="translate(925.194 2404.818)" fill="#f2f2f2"/>
      <line id="선_43" data-name="선 43" y1="6.769" transform="translate(925.194 2404.818)" fill="none" stroke="#2c4e5f" stroke-linecap="round" stroke-linejoin="round" stroke-width="2"/>
    </g>
    <g id="group_158" data-name="group 158" transform="translate(-861.662 -2340.258)">
      <path id="path_145" data-name="path 145" d="M223.515,131.757A45.757,45.757,0,1,1,177.757,86a45.758,45.758,0,0,1,45.757,45.757" transform="translate(834.823 2322.492)" fill="#fff"/>
      <ellipse id="타원_18" data-name="타원 18" cx="45.711" cy="45.711" rx="45.711" ry="45.711" transform="translate(966.704 2408.373)" fill="none" stroke="#2c4e5f" stroke-linecap="round" stroke-linejoin="round" stroke-width="2"/>
      <path id="path_146" data-name="path 146" d="M209.6,155.616a15.2,15.2,0,0,0-15.16-15.16H171.007a15.2,15.2,0,0,0-15.16,15.16V169.1H209.6Z" transform="translate(830.12 2311.752)" fill="#f2f2f2"/>
      <path id="path_147" data-name="path 147" d="M209.6,155.616a15.2,15.2,0,0,0-15.16-15.16H171.007a15.2,15.2,0,0,0-15.16,15.16V169.1H209.6Z" transform="translate(830.12 2311.752)" fill="none" stroke="#2c4e5f" stroke-linecap="round" stroke-linejoin="round" stroke-width="2"/>
      <path id="path_148" data-name="path 148" d="M177.633,135.413l-3.331,5.944,6.661,3.617,5.4-4.538v-.975l-4.824-1.723Z" transform="translate(826.479 2312.746)" fill="#f2f2f2"/>
      <path id="path_149" data-name="path 149" d="M177.633,135.413l-3.331,5.944,6.661,3.617,5.4-4.538v-.975l-4.824-1.723Z" transform="translate(826.479 2312.746)" fill="none" stroke="#2c4e5f" stroke-linecap="round" stroke-linejoin="round" stroke-width="2"/>
      <path id="path_150" data-name="path 150" d="M198.053,135.413l3.331,5.944-6.661,3.617-5.4-4.538v-.975l4.824-1.723Z" transform="translate(823.517 2312.746)" fill="#f2f2f2"/>
      <path id="path_151" data-name="path 151" d="M198.053,135.413l3.331,5.944-6.661,3.617-5.4-4.538v-.975l4.824-1.723Z" transform="translate(823.517 2312.746)" fill="none" stroke="#2c4e5f" stroke-linecap="round" stroke-linejoin="round" stroke-width="2"/>
      <path id="path_152" data-name="path 152" d="M197.122,113.3a10.336,10.336,0,1,0-20.673,0v2.067h20.673Z" transform="translate(826.057 2319.146)" fill="#999"/>
      <path id="path_153" data-name="path 153" d="M197.122,113.3a10.336,10.336,0,1,0-20.673,0v2.067h20.673Z" transform="translate(826.057 2319.146)" fill="none" stroke="#2c4e5f" stroke-linecap="round" stroke-linejoin="round" stroke-width="2"/>
      <path id="path_154" data-name="path 154" d="M176.449,118.413v7.358a10.336,10.336,0,1,0,20.673,0v-7.358Z" transform="translate(826.057 2316.1)" fill="#fff"/>
      <path id="path_155" data-name="path 155" d="M176.449,118.413v7.358a10.336,10.336,0,1,0,20.673,0v-7.358Z" transform="translate(826.057 2316.1)" fill="none" stroke="#2c4e5f" stroke-linecap="round" stroke-linejoin="round" stroke-width="2"/>
      <path id="path_156" data-name="path 156" d="M190.412,149.654l2.23-4.234-4.46-3.75-4.46,3.75,2.23,4.234-2.421,11.37,4.651,14.3,4.651-14.3Z" transform="translate(824.659 2311.512)" fill="#ff7782"/>
      <path id="path_157" data-name="path 157" d="M190.412,149.654l2.23-4.234-4.46-3.75-4.46,3.75,2.23,4.234-2.421,11.37,4.651,14.3,4.651-14.3Z" transform="translate(824.659 2311.512)" fill="none" stroke="#2c4e5f" stroke-linecap="round" stroke-linejoin="round" stroke-width="2"/>
      <line id="선_44" data-name="선 44" y1="6.769" transform="translate(995.327 2473.053)" fill="#f2f2f2"/>
      <line id="선_45" data-name="선 45" y1="6.769" transform="translate(995.327 2473.053)" fill="none" stroke="#2c4e5f" stroke-linecap="round" stroke-linejoin="round" stroke-width="2"/>
      <line id="선_46" data-name="선 46" y1="6.769" transform="translate(1030.355 2473.053)" fill="#f2f2f2"/>
      <line id="선_47" data-name="선 47" y1="6.769" transform="translate(1030.355 2473.053)" fill="none" stroke="#2c4e5f" stroke-linecap="round" stroke-linejoin="round" stroke-width="2"/>
    </g>
  </g>
</svg>
