<svg xmlns="http://www.w3.org/2000/svg" width="213.831" height="189.404" viewBox="0 0 213.831 189.404">
  <g id="group_34" data-name="group 34" transform="translate(1 1)">
    <g id="group_44" data-name="group 44" transform="translate(0 0)">
      <path id="path_57" data-name="path 57" d="M155.892,152.406A43.995,43.995,0,1,1,111.9,108.411a44,44,0,0,1,43.995,43.995" transform="translate(-5.981 -8.997)" fill="#fff"/>
      <ellipse id="타원_12" data-name="타원 12" cx="43.995" cy="43.995" rx="43.995" ry="43.995" transform="translate(61.921 99.414)" fill="none" stroke="#2c4e5f" stroke-linecap="round" stroke-linejoin="round" stroke-width="2"/>
      <path id="path_58" data-name="path 58" d="M142.553,169.828a16.684,16.684,0,0,0-16.635-16.635H100.21a16.684,16.684,0,0,0-16.635,16.635v14.8h58.978Z" transform="translate(-7.148 -12.331)" fill="#f2f2f2"/>
      <path id="path_59" data-name="path 59" d="M142.553,169.828a16.684,16.684,0,0,0-16.635-16.635H100.21a16.684,16.684,0,0,0-16.635,16.635v14.8h58.978Z" transform="translate(-7.148 -12.331)" fill="none" stroke="#2c4e5f" stroke-linecap="round" stroke-linejoin="round" stroke-width="2"/>
      <path id="path_60" data-name="path 60" d="M104.794,148.394l-3.655,6.521,7.31,3.97,5.923-4.979v-1.069l-5.293-1.891Z" transform="translate(-8.456 -11.974)" fill="#f2f2f2"/>
      <path id="path_61" data-name="path 61" d="M104.794,148.394l-3.655,6.521,7.31,3.97,5.923-4.979v-1.069l-5.293-1.891Z" transform="translate(-8.456 -11.974)" fill="none" stroke="#2c4e5f" stroke-linecap="round" stroke-linejoin="round" stroke-width="2"/>
      <path id="path_62" data-name="path 62" d="M125.014,148.394l3.655,6.521-7.31,3.97-5.923-4.979v-1.069l5.293-1.891Z" transform="translate(-9.52 -11.974)" fill="#f2f2f2"/>
      <path id="path_63" data-name="path 63" d="M125.014,148.394l3.655,6.521-7.31,3.97-5.923-4.979v-1.069l5.293-1.891Z" transform="translate(-9.52 -11.974)" fill="none" stroke="#2c4e5f" stroke-linecap="round" stroke-linejoin="round" stroke-width="2"/>
      <path id="path_64" data-name="path 64" d="M127.752,152.725a12.624,12.624,0,0,0,8.919,4.009,13.769,13.769,0,0,0-12.927-12.927,12.624,12.624,0,0,0,4.009,8.919" transform="translate(-10.139 -11.632)" fill="#999"/>
      <path id="path_65" data-name="path 65" d="M127.752,152.725a12.624,12.624,0,0,0,8.919,4.009,13.769,13.769,0,0,0-12.927-12.927A12.624,12.624,0,0,0,127.752,152.725Z" transform="translate(-10.139 -11.632)" fill="none" stroke="#2c4e5f" stroke-linecap="round" stroke-linejoin="round" stroke-width="2"/>
      <path id="path_66" data-name="path 66" d="M125.865,128.852a11.342,11.342,0,1,0-22.684,0v4.457h22.684Z" transform="translate(-8.608 -9.675)" fill="#999"/>
      <path id="path_67" data-name="path 67" d="M125.865,128.852a11.342,11.342,0,1,0-22.684,0v4.457h22.684Z" transform="translate(-8.608 -9.675)" fill="none" stroke="#2c4e5f" stroke-linecap="round" stroke-linejoin="round" stroke-width="2"/>
      <path id="path_68" data-name="path 68" d="M103.182,132.019v8.074a11.342,11.342,0,1,0,22.683,0v-8.074c-4.468.813-8.26.027-11.341-2.44-2.74,2.54-6.752,2.969-11.343,2.44" transform="translate(-8.608 -10.573)" fill="#fff"/>
      <path id="path_69" data-name="path 69" d="M103.182,132.019v8.074a11.342,11.342,0,1,0,22.683,0v-8.074c-4.468.813-8.26.027-11.341-2.44C111.785,132.119,107.773,132.548,103.182,132.019Z" transform="translate(-8.608 -10.573)" fill="none" stroke="#2c4e5f" stroke-linecap="round" stroke-linejoin="round" stroke-width="2"/>
      <line id="선_23" data-name="선 23" y1="7.428" transform="translate(86.697 163.735)" fill="#f2f2f2"/>
      <line id="선_24" data-name="선 24" y1="7.428" transform="translate(86.697 163.735)" fill="none" stroke="#2c4e5f" stroke-linecap="round" stroke-linejoin="round" stroke-width="2"/>
      <line id="선_25" data-name="선 25" y1="7.428" transform="translate(125.134 163.735)" fill="#f2f2f2"/>
      <line id="선_26" data-name="선 26" y1="7.428" transform="translate(125.134 163.735)" fill="none" stroke="#2c4e5f" stroke-linecap="round" stroke-linejoin="round" stroke-width="2"/>
      <path id="path_70" data-name="path 70" d="M117.21,165.27a1.929,1.929,0,1,1-1.929-1.929,1.929,1.929,0,0,1,1.929,1.929" transform="translate(-9.365 -13.087)" fill="#f2f2f2"/>
      <ellipse id="타원_13" data-name="타원 13" cx="1.929" cy="1.929" rx="1.929" ry="1.929" transform="translate(103.987 150.254)" fill="none" stroke="#2c4e5f" stroke-linecap="round" stroke-linejoin="round" stroke-width="2"/>
      <path id="path_71" data-name="path 71" d="M117.21,174.892a1.929,1.929,0,1,1-1.929-1.929,1.929,1.929,0,0,1,1.929,1.929" transform="translate(-9.365 -13.803)" fill="#f2f2f2"/>
      <ellipse id="타원_14" data-name="타원 14" cx="1.929" cy="1.929" rx="1.929" ry="1.929" transform="translate(103.987 159.16)" fill="none" stroke="#2c4e5f" stroke-linecap="round" stroke-linejoin="round" stroke-width="2"/>
      <line id="선_27" data-name="선 27" x1="51.077" y1="45.504" transform="translate(21.944 68.704)" fill="none" stroke="#2c4e5f" stroke-linecap="round" stroke-linejoin="round" stroke-width="2"/>
      <path id="path_72" data-name="path 72" d="M45.592,71.474a22.3,22.3,0,1,1-22.3-22.3,22.3,22.3,0,0,1,22.3,22.3" transform="translate(-1 -4.587)" fill="#a5d0fd"/>
      <ellipse id="타원_15" data-name="타원 15" cx="22.295" cy="22.295" rx="22.295" ry="22.295" transform="translate(0 44.592)" fill="none" stroke="#2c4e5f" stroke-linecap="round" stroke-linejoin="round" stroke-width="2"/>
      <path id="path_73" data-name="path 73" d="M34.785,72.42A10.543,10.543,0,1,1,24.241,61.876,10.544,10.544,0,0,1,34.785,72.42" transform="translate(-1.945 -5.532)" fill="#fff"/>
      <path id="path_74" data-name="path 74" d="M34.785,72.42A10.543,10.543,0,1,1,24.241,61.876,10.544,10.544,0,0,1,34.785,72.42Z" transform="translate(-1.945 -5.532)" fill="none" stroke="#2c4e5f" stroke-linecap="round" stroke-linejoin="round" stroke-width="2"/>
      <line id="선_28" data-name="선 28" y1="45.504" x2="51.077" transform="translate(138.811 68.704)" fill="none" stroke="#2c4e5f" stroke-linecap="round" stroke-linejoin="round" stroke-width="2"/>
      <path id="path_75" data-name="path 75" d="M181.693,71.474a22.3,22.3,0,1,0,22.3-22.3,22.3,22.3,0,0,0-22.3,22.3" transform="translate(-14.454 -4.587)" fill="#a5d0fd"/>
      <path id="path_76" data-name="path 76" d="M181.693,71.474a22.3,22.3,0,1,0,22.3-22.3A22.3,22.3,0,0,0,181.693,71.474Z" transform="translate(-14.454 -4.587)" fill="none" stroke="#2c4e5f" stroke-linecap="round" stroke-linejoin="round" stroke-width="2"/>
      <path id="path_77" data-name="path 77" d="M194.391,72.42a10.543,10.543,0,1,0,10.544-10.544A10.544,10.544,0,0,0,194.391,72.42" transform="translate(-15.399 -5.532)" fill="#fff"/>
      <path id="path_78" data-name="path 78" d="M194.391,72.42a10.543,10.543,0,1,0,10.544-10.544A10.544,10.544,0,0,0,194.391,72.42Z" transform="translate(-15.399 -5.532)" fill="none" stroke="#2c4e5f" stroke-linecap="round" stroke-linejoin="round" stroke-width="2"/>
      <path id="path_79" data-name="path 79" d="M135.938,23.3A22.3,22.3,0,1,1,113.642,1a22.3,22.3,0,0,1,22.3,22.3" transform="translate(-7.727 -1)" fill="#a5d0fd"/>
      <ellipse id="타원_16" data-name="타원 16" cx="22.295" cy="22.295" rx="22.295" ry="22.295" transform="translate(83.62 0)" fill="none" stroke="#2c4e5f" stroke-linecap="round" stroke-linejoin="round" stroke-width="2"/>
      <path id="path_80" data-name="path 80" d="M125.132,24.241A10.543,10.543,0,1,1,114.588,13.7a10.544,10.544,0,0,1,10.544,10.544" transform="translate(-8.672 -1.945)" fill="#fff"/>
      <path id="path_81" data-name="path 81" d="M125.132,24.241A10.543,10.543,0,1,1,114.588,13.7,10.544,10.544,0,0,1,125.132,24.241Z" transform="translate(-8.672 -1.945)" fill="none" stroke="#2c4e5f" stroke-linecap="round" stroke-linejoin="round" stroke-width="2"/>
      <line id="선_29" data-name="선 29" y2="54.823" transform="translate(105.916 44.591)" fill="none" stroke="#2c4e5f" stroke-linecap="round" stroke-linejoin="round" stroke-width="2"/>
      <line id="선_30" data-name="선 30" y1="23.471" x2="44.903" transform="translate(38.717 28.338)" fill="none" stroke="#2c4e5f" stroke-linecap="round" stroke-linejoin="round" stroke-width="2"/>
      <line id="선_31" data-name="선 31" x1="44.903" y1="23.471" transform="translate(128.211 28.338)" fill="none" stroke="#2c4e5f" stroke-linecap="round" stroke-linejoin="round" stroke-width="2"/>
      <path id="path_181" data-name="path 181" d="M59.885,65.2l2.383-4.525L57.5,56.67l-4.767,4.007L55.118,65.2,52.531,77.354,57.5,92.636l4.971-15.282Z" transform="translate(48.413 84.996)" fill="#a5d0fd" stroke="#2c4e5f" stroke-linecap="round" stroke-linejoin="round" stroke-width="2"/>
    </g>
  </g>
</svg>
