<svg id="그룹_139" data-name="그룹 139" xmlns="http://www.w3.org/2000/svg" xmlns:xlink="http://www.w3.org/1999/xlink" width="35.495" height="25.481" viewBox="0 0 35.495 25.481">
  <defs>
    <clipPath id="clip-path">
      <rect id="사각형_214" data-name="사각형 214" width="35.494" height="25.481" fill="#06092b"/>
    </clipPath>
  </defs>
  <g id="그룹_138" data-name="그룹 138" clip-path="url(#clip-path)">
    <path id="패스_1225" data-name="패스 1225" d="M20.448,12.049l.229-.187.005,0,.224-.183.033-.027.2-.159.063-.05.167-.135.091-.074.139-.111.12-.1.11-.089.149-.12.081-.065.177-.143.053-.042.206-.166.023-.019.23-.186,0,0,.226-.181.033-.026.2-.158.062-.05.168-.135.231-.185.119-.1.111-.089.148-.118.082-.066.177-.142.053-.043.207-.165.024-.019.231-.185,0,0,.227-.18.033-.027.2-.159.061-.048.17-.135L25.6,7.9l.14-.111.12-.1.111-.089.148-.118.084-.066.176-.141.055-.043.205-.164.026-.02.231-.184,0,0,.229-.18.231-.184.06-.049.171-.135.09-.07.142-.113.118-.094.115-.09.146-.117.084-.067.176-.139.056-.043.205-.163.026-.02.231-.184,0,0,.692-.549.089-.07.142-.114.118-.094.114-.09.146-.116.085-.067.175-.14.057-.045.2-.161.028-.022.231-.183,0,0,.229-.183.031-.024.2-.159.059-.046.173-.137.087-.07.143-.114.117-.094.115-.091.146-.115.085-.068.175-.139.057-.044.2-.162.029-.022.231-.184h0l.231-.183.029-.024.2-.16.059-.046.173-.139.088-.069.143-.115.116-.092L34.3.992l.145-.116.087-.069L34.7.669l.058-.046.2-.161.029-.022.231-.185L35.217.247,35.21.24,35.2.232,35.193.225,35.186.219,35.178.212,35.17.205,35.162.2,35.154.192,35.145.186,35.137.18,35.128.173,35.121.166,35.111.16,35.1.154,35.093.149,35.086.143l0,0-.007,0L35.067.132l0,0-.007,0L35.049.121,35.04.115,35.03.11l0,0-.005,0L35.012.1l0,0L35,.1l-.01,0,0,0-.005,0-.01,0,0,0-.005,0-.009,0,0,0,0,0-.011,0-.009,0-.01,0-.005,0,0,0L34.9.05l-.006,0h0l-.01,0-.006,0,0,0-.009,0-.006,0h0l-.01,0-.006,0h0l-.01,0-.011,0-.01,0-.008,0h0l-.012,0-.01,0-.011,0-.011,0-.011,0h-.011l-.011,0L34.7,0h-.025l-.01,0H.8l-.009,0-.012,0H.765l-.01,0-.012,0-.011,0-.01,0-.011,0L.7.021l-.01,0h0L.68.026l-.011,0-.01,0-.01,0-.011,0-.01,0-.011,0-.009,0L.6.05l-.01,0h0l-.007,0-.01,0,0,0-.007,0-.01,0,0,0-.006,0-.009,0L.518.083l-.009,0L.5.091.489.1.48.1l-.01,0L.461.111.452.117.443.122l-.009,0L.429.13.416.139.406.144.4.15.389.156.381.162.372.168.363.174.355.181.347.187.341.19l0,0L.331.2.324.2l0,0L.313.214.306.221.3.228l-.005,0,0,0L.282.242.275.25.267.257,16.828,13.575c.711.571,1.1.534,1.794-.038q.911-.748,1.826-1.488m-7.535.642L0,23.164V2.306Zm7.591,1.6,14.69,10.965-.006.006,0,0-.006.005-.009.007,0,0-.005,0-.008.006,0,0,0,0-.008.006-.006,0,0,0-.009.005-.006,0,0,0-.009.005-.008.006h0l-.008.005-.008.005h0l-.007,0-.009.005,0,0-.005,0-.009,0,0,0,0,0-.009,0-.005,0,0,0-.009,0-.008,0h0l-.009,0-.008,0h0l-.009,0-.019.009-.009,0,0,0-.005,0-.01,0,0,0,0,0-.009,0-.007,0,0,0-.009,0-.008,0h0l-.01,0-.01,0h0l-.009,0-.009,0h0l-.009,0-.009,0h0l-.007,0-.01,0h-.005l0,0-.009,0-.007,0h0l-.011,0-.008,0h0l-.01,0h-.01l-.01,0-.01,0h0l-.009,0H34.69l-.01,0h-.009l-.012,0H.836l-.01,0H.815a1,1,0,0,1-.148-.026l-.01,0-.011,0h0a.9.9,0,0,1-.382-.226l14.057-11.4,1.4,1.128A2.872,2.872,0,0,0,19.74,14.9ZM35.494,2.3v20.98L21.927,13.152Z" fill="#06092b" fill-rule="evenodd"/>
  </g>
</svg>
