<svg xmlns="http://www.w3.org/2000/svg" xmlns:xlink="http://www.w3.org/1999/xlink" width="39" height="34.125" viewBox="0 0 39 34.125">
  <defs>
    <clipPath id="clip-path">
      <rect id="square_213" data-name="square 213" width="39" height="34.125" transform="translate(0 0)" fill="#06092b"/>
    </clipPath>
  </defs>
  <g id="group_137" data-name="group 137" transform="translate(-0.289 -0.122)">
    <g id="group_136" data-name="group 136" transform="translate(0.289 0.122)" clip-path="url(#clip-path)">
      <path id="path_1220" data-name="path 1220" d="M37.733,9.645H32.386a1.929,1.929,0,0,0,.044-.375l.188-7.346A1.866,1.866,0,0,0,32.082.571,1.9,1.9,0,0,0,30.711,0H11.652a.772.772,0,0,0-.525.206L7.34,3.72a.772.772,0,0,0-.246.546l-.127,4.96a1.911,1.911,0,0,0,.039.419H1.929A1.809,1.809,0,0,0,0,11.353V24.837a1.863,1.863,0,0,0,1.929,1.785H7.044l-.078,6.217a1.946,1.946,0,0,0,.554,1.391,1.883,1.883,0,0,0,1.353.571H30.479a1.972,1.972,0,0,0,1.951-1.938l.078-6.241h5.225a1.863,1.863,0,0,0,1.929-1.785V11.353a1.809,1.809,0,0,0-1.929-1.707M30.887,32.838a.436.436,0,0,1-.408.419H8.874a.354.354,0,0,1-.251-.109.394.394,0,0,1-.113-.286L8.7,17.829a.41.41,0,0,1,.408-.391H30.711a.367.367,0,0,1,.265.109.347.347,0,0,1,.1.258Zm0-23.6a.425.425,0,0,1-.408.41H8.874a.354.354,0,0,1-.251-.109A.387.387,0,0,1,8.51,9.26l.107-4.168h1.8a1.966,1.966,0,0,0,1.952-1.92l.042-1.63h18.3a.373.373,0,0,1,.269.108.326.326,0,0,1,.095.238Zm5.191,5.6a1.44,1.44,0,1,1,1.44-1.44,1.442,1.442,0,0,1-1.44,1.44" transform="translate(-0.228 -0.072)" fill="#06092b"/>
      <path id="path_1221" data-name="path 1221" d="M289.825,504H272.772a.772.772,0,0,0,0,1.543h17.053a.772.772,0,1,0,0-1.543" transform="translate(-261.734 -484.627)" fill="#06092b"/>
      <path id="path_1222" data-name="path 1222" d="M289.825,594H272.772a.772.772,0,1,0,0,1.543h17.053a.772.772,0,1,0,0-1.543" transform="translate(-261.734 -571.155)" fill="#06092b"/>
      <path id="path_1223" data-name="path 1223" d="M289.825,684H272.772a.772.772,0,0,0,0,1.543h17.053a.772.772,0,1,0,0-1.543" transform="translate(-261.734 -657.683)" fill="#06092b"/>
      <path id="path_1224" data-name="path 1224" d="M289.825,774H272.772a.772.772,0,0,0,0,1.543h17.053a.772.772,0,1,0,0-1.543" transform="translate(-261.734 -744.21)" fill="#06092b"/>
    </g>
  </g>
</svg>
