<svg id="group_14561" data-name="group 14561" xmlns="http://www.w3.org/2000/svg" xmlns:xlink="http://www.w3.org/1999/xlink" width="218.064" height="50.928" viewBox="0 0 218.064 50.928">
  <defs>
    <clipPath id="clip-path">
      <rect id="square_283" data-name="square 283" width="218.064" height="50.927" fill="#fff"/>
    </clipPath>
  </defs>
  <g id="group_311" data-name="group 311" clip-path="url(#clip-path)">
    <path id="path_1456" data-name="path 1456" d="M218.064,4.361V33.4a6.864,6.864,0,0,1-3.343,5.937L195.914,50.858a.5.5,0,0,1-.748-.449V17.033a.47.47,0,0,0-.748-.4L144.329,49.211a5.4,5.4,0,0,1-2.993.9H108.109a4,4,0,0,1-3.991-3.991V4.86a.505.505,0,0,0-.748-.449L70.044,24.517a.52.52,0,0,0-.1.8l24.146,24.1a.418.418,0,0,1-.3.7H71.441a4.488,4.488,0,0,1-3.193-1.3L53.98,34.594a.454.454,0,0,0-.6-.05l-24.6,14.867a5,5,0,0,1-2.544.7H3.991A4,4,0,0,1,0,46.118V17.482A6.993,6.993,0,0,1,3.392,11.5L22.35.071A.5.5,0,0,1,23.1.52V38.485a.505.505,0,0,0,.748.449L86.557,1.069A5,5,0,0,1,89.1.37h33.426a4,4,0,0,1,3.991,3.991V45.27a.47.47,0,0,0,.748.4l69.046-44.5a5.151,5.151,0,0,1,2.694-.8h15.017a3.982,3.982,0,0,1,4.041,3.991" transform="translate(0 0)" fill="#fff"/>
  </g>
</svg>
