<svg id="group_14434" data-name="group 14434" xmlns="http://www.w3.org/2000/svg" xmlns:xlink="http://www.w3.org/1999/xlink" width="158.429" height="37" viewBox="0 0 158.429 37">
  <defs>
    <clipPath id="clip-path">
      <rect id="square_283" data-name="square 283" width="158.429" height="37" fill="#f0f0f0"/>
    </clipPath>
  </defs>
  <g id="group_311" data-name="group 311" clip-path="url(#clip-path)">
    <path id="path_1456" data-name="path 1456" d="M158.429,3.169V24.263A4.987,4.987,0,0,1,156,28.577l-13.664,8.373a.36.36,0,0,1-.544-.326V12.375a.341.341,0,0,0-.544-.29l-36.39,23.668a3.92,3.92,0,0,1-2.175.652H78.544a2.908,2.908,0,0,1-2.9-2.9V3.531A.367.367,0,0,0,75.1,3.2L50.888,17.812a.378.378,0,0,0-.072.58L68.359,35.9a.3.3,0,0,1-.218.507H51.9a3.261,3.261,0,0,1-2.32-.942L39.217,25.134a.33.33,0,0,0-.435-.036L20.913,35.9a3.631,3.631,0,0,1-1.848.507H2.9a2.908,2.908,0,0,1-2.9-2.9V12.7a5.081,5.081,0,0,1,2.465-4.35L16.238.052a.361.361,0,0,1,.544.326V27.961a.367.367,0,0,0,.544.326L62.886.777A3.629,3.629,0,0,1,64.734.269H89.019a2.908,2.908,0,0,1,2.9,2.9V32.89a.341.341,0,0,0,.544.29L142.626.849a3.743,3.743,0,0,1,1.957-.58h10.91a2.893,2.893,0,0,1,2.936,2.9" transform="translate(0 0)" fill="#f0f0f0"/>
  </g>
</svg>
