<svg xmlns="http://www.w3.org/2000/svg" width="12.816" height="16.56" viewBox="0 0 12.816 16.56">
  <g id="그룹_14545" data-name="그룹 14545" transform="translate(-0.4 -0.4)" opacity="0.2">
    <g id="그룹_14546" data-name="그룹 14546" transform="translate(1 1)">
      <path id="패스_17782" data-name="패스 17782" d="M12.616,24.287c0,1.191-2.6,2.157-5.808,2.157S1,25.479,1,24.287,3.6,22.13,6.808,22.13s5.808.966,5.808,2.157" transform="translate(-1 -11.085)" fill="#fff" stroke="#000" stroke-linecap="round" stroke-linejoin="round" stroke-width="1.2"/>
      <ellipse id="타원_56" data-name="타원 56" cx="5.808" cy="2.157" rx="5.808" ry="2.157" transform="translate(0 11.046)" fill="none" stroke="#000" stroke-linecap="round" stroke-linejoin="round" stroke-width="1.2"/>
      <path id="패스_17783" data-name="패스 17783" d="M12.514,5.63c0,2.557-4.63,8.572-4.63,8.572S3.253,8.188,3.253,5.63a4.63,4.63,0,1,1,9.261,0" transform="translate(-2.075 -1)" fill="#fff" stroke="#000" stroke-linecap="round" stroke-linejoin="round" stroke-width="1.2"/>
      <path id="패스_17784" data-name="패스 17784" d="M12.514,5.63c0,2.557-4.63,8.572-4.63,8.572S3.253,8.188,3.253,5.63a4.63,4.63,0,1,1,9.261,0Z" transform="translate(-2.075 -1)" fill="none" stroke="#000" stroke-linecap="round" stroke-linejoin="round" stroke-width="1.2"/>
      <path id="패스_17785" data-name="패스 17785" d="M12.227,8.645A1.329,1.329,0,1,1,10.9,7.316a1.329,1.329,0,0,1,1.329,1.329" transform="translate(-5.09 -4.014)" fill="#fff" stroke="#000" stroke-linecap="round" stroke-linejoin="round" stroke-width="1.2"/>
      <circle id="타원_57" data-name="타원 57" cx="1.329" cy="1.329" r="1.329" transform="translate(4.479 3.302)" fill="none" stroke="#000" stroke-linecap="round" stroke-linejoin="round" stroke-width="1.2"/>
    </g>
  </g>
</svg>
