<svg xmlns="http://www.w3.org/2000/svg" width="157.137" height="80.67" viewBox="0 0 157.137 80.67">
  <g id="그룹_14420" data-name="그룹 14420" transform="translate(22977 22803)">
    <path id="패스_17639" data-name="패스 17639" d="M11.572-8.844v1.408h3.74v.858h2.266V-18.172H15.312v9.328ZM7.458-16.3c1.694,0,2.794.528,2.794,1.452S9.152-13.4,7.458-13.4c-1.716,0-2.816-.528-2.816-1.452S5.742-16.3,7.458-16.3Zm0,4.422c2.948,0,4.928-1.144,4.928-2.97s-1.98-2.97-4.928-2.97c-2.97,0-4.95,1.144-4.95,2.97S4.488-11.88,7.458-11.88ZM6.2-6.512H8.492V-9.438c1.848-.088,3.74-.242,5.566-.506l-.154-1.43c-4.2.44-9,.462-12.826.462l.264,1.628c1.5,0,3.146,0,4.862-.066ZM6.292-.088V-1.54H17.578V-5.874H4v1.562h11.33v1.32H4.048v4.51h14.1V-.088ZM36.014-8.8H24.508v-5.786H35.86v-1.848H22.242v9.46H36.014ZM20.042-2.728v1.87H38.06v-1.87Zm29.018.22V-5.9h6.2V-7.722h-11.9v-2.772H54.824v-6.292H41.1v1.826H52.58V-12.3H41.14v6.4h5.654v3.388H38.962v1.87h18v-1.87ZM65.208-14.322H69.63v-1.87H58.5v1.87H62.92v1.892a9.715,9.715,0,0,1-5.126,8.536l1.3,1.8a10.247,10.247,0,0,0,4.994-6.248A9.737,9.737,0,0,0,69.1-2.6l1.254-1.782a8.963,8.963,0,0,1-5.148-8.052Zm6.732-3.85V1.694h2.288V-18.172ZM87.626-5.962h2.112V-17.754H87.626v4.73H85.272V-11.2h2.354Zm-1.672-3.19a33.882,33.882,0,0,1-6.138.484v-2.354h4.576v-1.76H79.816v-2.2h5.3v-1.826h-7.48v9.944h1.3a37.057,37.057,0,0,0,7.238-.484ZM80.1-3.124H91.344v4.84H93.61V-4.95H80.1ZM91.454-18.172V-5.808H93.61V-18.172Z" transform="translate(-22913.473 -22732)"/>
    <g id="그룹_14418" data-name="그룹 14418" transform="translate(-22977 -22761)">
      <g id="그룹_7" data-name="그룹 7" transform="translate(0 0)">
        <path id="패스_1" data-name="패스 1" d="M39.17,0,30.058,16.335,30.391,0H21.168L10.39,16.335,12.39,0H2.722L0,30.114H10.112L22.057,11.39l-.611,18.724h9.723L48.393,0Z" transform="translate(0 0)" fill="#334291"/>
        <path id="패스_2" data-name="패스 2" d="M187.214,58.047l-17.168,30h25.78l4.056-7.445h-15.5l12.834-22.558Z" transform="translate(-144.655 -49.379)" fill="#fe0000"/>
      </g>
    </g>
    <path id="패스_17638" data-name="패스 17638" d="M11.572-8.844v1.408h3.74v.858h2.266V-18.172H15.312v9.328ZM7.458-16.3c1.694,0,2.794.528,2.794,1.452S9.152-13.4,7.458-13.4c-1.716,0-2.816-.528-2.816-1.452S5.742-16.3,7.458-16.3Zm0,4.422c2.948,0,4.928-1.144,4.928-2.97s-1.98-2.97-4.928-2.97c-2.97,0-4.95,1.144-4.95,2.97S4.488-11.88,7.458-11.88ZM6.2-6.512H8.492V-9.438c1.848-.088,3.74-.242,5.566-.506l-.154-1.43c-4.2.44-9,.462-12.826.462l.264,1.628c1.5,0,3.146,0,4.862-.066ZM6.292-.088V-1.54H17.578V-5.874H4v1.562h11.33v1.32H4.048v4.51h14.1V-.088ZM36.014-8.8H24.508v-5.786H35.86v-1.848H22.242v9.46H36.014ZM20.042-2.728v1.87H38.06v-1.87Zm29.018.22V-5.9h6.2V-7.722h-11.9v-2.772H54.824v-6.292H41.1v1.826H52.58V-12.3H41.14v6.4h5.654v3.388H38.962v1.87h18v-1.87ZM65.208-14.322H69.63v-1.87H58.5v1.87H62.92v1.892a9.715,9.715,0,0,1-5.126,8.536l1.3,1.8a10.247,10.247,0,0,0,4.994-6.248A9.737,9.737,0,0,0,69.1-2.6l1.254-1.782a8.963,8.963,0,0,1-5.148-8.052Zm6.732-3.85V1.694h2.288V-18.172ZM87.626-5.962h2.112V-17.754H87.626v4.73H85.272V-11.2h2.354Zm-1.672-3.19a33.882,33.882,0,0,1-6.138.484v-2.354h4.576v-1.76H79.816v-2.2h5.3v-1.826h-7.48v9.944h1.3a37.057,37.057,0,0,0,7.238-.484ZM80.1-3.124H91.344v4.84H93.61V-4.95H80.1ZM91.454-18.172V-5.808H93.61V-18.172Z" transform="translate(-22913.473 -22774)" fill="#fff"/>
    <g id="그룹_14419" data-name="그룹 14419" transform="translate(-22977 -22803)">
      <g id="그룹_7-2" data-name="그룹 7" transform="translate(0 0)">
        <path id="패스_1-2" data-name="패스 1" d="M39.17,0,30.058,16.335,30.391,0H21.168L10.39,16.335,12.39,0H2.722L0,30.114H10.112L22.057,11.39l-.611,18.724h9.723L48.393,0Z" transform="translate(0 0)" fill="#fff"/>
        <path id="패스_2-2" data-name="패스 2" d="M187.214,58.047l-17.168,30h25.78l4.056-7.445h-15.5l12.834-22.558Z" transform="translate(-144.655 -49.379)" fill="#fe0000"/>
      </g>
    </g>
  </g>
</svg>
