<svg xmlns="http://www.w3.org/2000/svg" xmlns:xlink="http://www.w3.org/1999/xlink" width="282.217" height="97.474" viewBox="0 0 282.217 97.474">
  <defs>
    <clipPath id="clip-path">
      <rect id="square_285" data-name="square 285" width="282.217" height="97.474" fill="none"/>
    </clipPath>
  </defs>
  <g id="group_313" data-name="group 313" clip-path="url(#clip-path)">
    <path id="path_1457" data-name="path 1457" d="M77.186,54.258a28.57,28.57,0,0,1,49.77-19.148,31.968,31.968,0,1,0-16.743,47.371A28.6,28.6,0,0,1,77.186,54.258" transform="translate(44.693 13.299)" fill="#dc000c"/>
    <path id="path_1458" data-name="path 1458" d="M116.26,52.835A22.108,22.108,0,0,0,78.437,36.326,24.749,24.749,0,1,1,89.77,73.532a23.8,23.8,0,0,0,3.421.414A22.119,22.119,0,0,0,116.26,52.835" transform="translate(51.586 16.911)" fill="#dc000c"/>
    <path id="path_1459" data-name="path 1459" d="M27.376,79.2H42.653a6.507,6.507,0,0,1-3.818-5.843V33.034l16.736,39.31a21.448,21.448,0,0,0,6.51,7.975L81.393,32.7V74.14a5.485,5.485,0,0,1-3.806,4.938H94.323a9.063,9.063,0,0,1-4.5-6.627V26.526a4.652,4.652,0,0,1,3.7-4.385H77.134a17.87,17.87,0,0,1-1.155,5.411C74.76,30.97,61.711,64.239,61.711,64.239L43.775,22.368H27.487a5.923,5.923,0,0,1,3.939,5.953v43.91a10.125,10.125,0,0,1-4.05,6.967" transform="translate(18.004 14.562)" fill="#1a1311"/>
    <path id="path_1460" data-name="path 1460" d="M133.8,22.246h17.4s-4.162,1.815-4.162,5.866V73.692S146.931,77,151.2,79.134H133.8a8.824,8.824,0,0,0,4.058-5.442V28.33a7.425,7.425,0,0,0-4.058-6.084" transform="translate(87.994 14.631)" fill="#1a1311"/>
    <path id="path_1461" data-name="path 1461" d="M181.788,34.049l-.071-10.78a60.352,60.352,0,0,0-13.593-1.928s-20.49-.847-21.457,15.382c0,0-.211,10.14,12.708,15.368,0,0,10.248,4.376,12.912,6.508a7.908,7.908,0,0,1,4.272,7.156s.628,8.94-12.325,8.923c0,0-12.121-.06-18.841-7.968l2.987,11.96s5.759,1.925,16.225,2.138c0,0,21.117-.426,21.987-16.761,0,0,.5-8.426-8.673-13.062,0,0-7.788-3.688-15.484-7.7,0,0-5.475-2.946-5.475-8.22,0,0,.209-7.473,11.057-7.416,0,0,9.183-.434,13.772,6.4" transform="translate(95.62 14.031)" fill="#1a1311"/>
    <path id="path_1462" data-name="path 1462" d="M129.575,72.467l-10.745-.1v-21.5h8.114s13.387-.209,13.387,11.067c0,0,.414,9.692-10.757,10.533M118.94,28a37.995,37.995,0,0,1,6.43-.214c9.9.744,9.477,8.225,9.477,8.225,0,9.271-11.168,8.951-11.168,8.951H118.94Zm17.7,18.326s8.217-3.307,8.217-11.955c0,0-.1-11.531-15.806-12.063l-23.262.109a6.681,6.681,0,0,1,4.061,6.221V73.651a5.288,5.288,0,0,1-4.061,5.329h23.169s21.339-.923,21.339-17.709c0,0,.887-11.458-13.658-14.946" transform="translate(69.572 14.672)" fill="#1a1311"/>
    <path id="path_1463" data-name="path 1463" d="M16.288,0V9.261H5.782V0H0V24.3H5.782v-9.77H16.288V24.3h5.789V0H16.288Z" transform="translate(0 0)" fill="#00367c"/>
    <path id="path_1464" data-name="path 1464" d="M33.626,0,27.574,9.626,21.524,0H14.692l10,15.889V24.3h5.775V15.889L40.454,0H33.626Z" transform="translate(9.663 0)" fill="#00367c"/>
    <path id="path_1465" data-name="path 1465" d="M47.927,0V17.823A1.2,1.2,0,0,1,46.7,19.04H37.424V0h-5.79V24.3H48.739a4.955,4.955,0,0,0,3.634-1.331,4.931,4.931,0,0,0,1.333-3.63V0H47.927Z" transform="translate(20.805 0)" fill="#00367c"/>
    <path id="path_1466" data-name="path 1466" d="M65.29,0H48.183V24.3h5.784V5.263h9.28a1.2,1.2,0,0,1,1.23,1.213V24.3h5.775V4.978a4.919,4.919,0,0,0-1.334-3.639A4.939,4.939,0,0,0,65.29,0" transform="translate(31.688 0)" fill="#00367c"/>
    <path id="path_1467" data-name="path 1467" d="M81.835,0H64.728V24.306H81.835a4.95,4.95,0,0,0,3.634-1.333A4.929,4.929,0,0,0,86.8,19.345V4.978a4.93,4.93,0,0,0-1.338-3.639A4.947,4.947,0,0,0,81.835,0m-.811,6.521V17.788A1.218,1.218,0,0,1,79.79,19.04H70.518V5.263h9.24a1.215,1.215,0,0,1,1.266,1.258" transform="translate(42.57 0)" fill="#00367c"/>
    <path id="path_1468" data-name="path 1468" d="M86.091,0a4.951,4.951,0,0,0-3.63,1.339,4.939,4.939,0,0,0-1.329,3.639V24.3H86.9V16.792h10.51V24.3h5.774V0ZM97.408,5.263v6.266H86.9V6.5a1.239,1.239,0,0,1,1.237-1.237Z" transform="translate(53.357 0)" fill="#00367c"/>
    <rect id="square_284" data-name="square 284" width="5.787" height="24.305" transform="translate(162.178)" fill="#00367c"/>
  </g>
</svg>
