<svg xmlns="http://www.w3.org/2000/svg" width="69.545" height="69.529" viewBox="0 0 69.545 69.529">
  <g id="group_14456" data-name="group 14456" transform="translate(0.916 0.9)">
    <g id="group_189" data-name="group 189" transform="translate(0 0)">
      <path id="path_1269" data-name="path 1269" d="M64.629,30.387H.423a.423.423,0,0,1-.323-.7L23.42,2.1A5.92,5.92,0,0,1,27.946,0H58.522a.423.423,0,1,1,0,.847H27.946a5.072,5.072,0,0,0-3.879,1.8L1.337,29.54H64.242L66.841.847H57.779a.423.423,0,0,1,0-.847H67.3a.424.424,0,0,1,.421.462L65.051,30a.424.424,0,0,1-.422.385" transform="translate(0)" fill="#1f2a65" stroke="#1f2a65" stroke-width="1.8"/>
      <path id="path_1271" data-name="path 1271" d="M52.226,35.714H45.872a1.791,1.791,0,0,1-1.788-1.789V31.277a.424.424,0,0,1,.423-.423h5.821a.423.423,0,0,1,0,.847h-5.4v2.224a.943.943,0,0,0,.942.943h6.354a.944.944,0,0,0,.943-.943V31.7H49.752a.423.423,0,0,1,0-.847h3.841a.424.424,0,0,1,.423.423v2.647a1.791,1.791,0,0,1-1.789,1.789" transform="translate(5.686 3.98)" fill="#fe0000" stroke="#fb0000" stroke-width="1.8"/>
      <path id="path_1273" data-name="path 1273" d="M33.908,51.3H.423a.423.423,0,0,1,0-.847H34.13a.423.423,0,0,1,0,.847" transform="translate(0 6.508)" fill="#fe0000" stroke="#fe0000" stroke-width="1.8"/>
      <path id="path_1274" data-name="path 1274" d="M60.872,51.3H29.549a.423.423,0,0,1,0-.847H60.872a.423.423,0,0,1,0,.847" transform="translate(3.757 6.508)" fill="#fe0000" stroke="#fe0000" stroke-width="1.8"/>
      <path id="path_1275" data-name="path 1275" d="M48.749,20.788H22.7a.315.315,0,1,1,0-.629H48.448l1.6-16.893H23.691a2.223,2.223,0,0,0-1.668.739L7.718,20.159H24.13a.315.315,0,1,1,0,.629H7.008a.331.331,0,0,1-.3-.182.3.3,0,0,1,.047-.336L21.519,3.6a2.893,2.893,0,0,1,2.172-.962H50.412a.333.333,0,0,1,.243.1.3.3,0,0,1,.085.24L49.077,20.5a.323.323,0,0,1-.328.286" transform="translate(8.323 3.452)" fill="#1f2a65" stroke="#1f2a65" stroke-width="1.8"/>
      <path id="path_1270" data-name="path 1270" d="M64.629,64.353H.423A.424.424,0,0,1,0,63.93V26.588a.423.423,0,1,1,.847,0V63.506H64.206V26.588a.423.423,0,1,1,.847,0V63.93a.424.424,0,0,1-.423.423" transform="translate(0 3.375)" fill="#1f2a65" stroke="#1f2a65" stroke-width="1.8"/>
    </g>
  </g>
</svg>
