<svg xmlns="http://www.w3.org/2000/svg" width="61.998" height="58.174" viewBox="0 0 61.998 58.174">
  <g id="group_14485" data-name="group 14485" transform="translate(-0.959 -4.652)">
    <g id="group_195" data-name="group 195" transform="translate(0.959 4.653)">
      <path id="path_1282" data-name="path 1282" d="M2.207,32.412H0V5.743A6.631,6.631,0,0,1,1.721,1.371,5.067,5.067,0,0,1,5.569,0L34.455.581A5.227,5.227,0,0,1,38.24,2.064c1.175,1.218,1.642,3.031,1.388,5.386V19.8H37.421l.007-12.532c.191-1.69-.066-2.92-.763-3.657a3.051,3.051,0,0,0-2.158-.823L5.514,2.211a2.843,2.843,0,0,0-2.244.732,4.421,4.421,0,0,0-1.063,2.8Z" transform="translate(0 0)" fill="#1f2a65"/>
      <path id="path_1284" data-name="path 1284" d="M14.868,53.957a6.642,6.642,0,1,1,6.641-6.641,6.649,6.649,0,0,1-6.641,6.641m0-11.077A4.435,4.435,0,1,0,19.3,47.316a4.441,4.441,0,0,0-4.434-4.436" transform="translate(0.853 4.217)" fill="#1f2a65"/>
      <path id="path_1286" data-name="path 1286" d="M41.69,53.957a6.642,6.642,0,1,1,6.642-6.641,6.649,6.649,0,0,1-6.642,6.641m0-11.077a4.435,4.435,0,1,0,4.435,4.436A4.441,4.441,0,0,0,41.69,42.88" transform="translate(3.634 4.217)" fill="#1f2a65"/>
      <path id="path_1287" data-name="path 1287" d="M62,47.176H54.4l-.275-.7a9.582,9.582,0,0,0-17.836,0l-.275.7h-11.1l-.276-.7a9.581,9.581,0,0,0-17.835,0l-.276.7H0V28.569H37.331V14.853l13.507.534.212.106c.34.169,8.337,4.28,10.92,15.354L62,31.1Zm-6.12-2.207h3.913V31.226a21.439,21.439,0,0,0-9.536-13.653l-10.717-.425V30.776H2.207V44.968H5.052a11.788,11.788,0,0,1,21.339,0h8.15a11.788,11.788,0,0,1,21.339,0" transform="translate(0 1.54)" fill="#1f2a65"/>
      <path id="path_1288" data-name="path 1288" d="M18.812,26.84a10.68,10.68,0,1,1,10.679-10.68A10.692,10.692,0,0,1,18.812,26.84m0-19.154a8.473,8.473,0,1,0,8.472,8.473,8.482,8.482,0,0,0-8.472-8.473" transform="translate(0.843 0.568)" fill="#fe0000"/>
      <path id="path_1289" data-name="path 1289" d="M22.292,14.817H18.441V10.339a.938.938,0,0,0-1.875,0v5.415a.937.937,0,0,0,.937.936h4.789a.936.936,0,1,0,0-1.873" transform="translate(1.718 0.975)" fill="#fe0000"/>
    </g>
  </g>
</svg>
