<svg xmlns="http://www.w3.org/2000/svg" width="70.014" height="60.785" viewBox="0 0 70.014 60.785">
  <g id="그룹_14468" data-name="그룹 14468" transform="translate(-1085.354 -3704.582)">
    <g id="그룹_324" data-name="그룹 324" transform="translate(1107.887 3705.082)">
      <g id="그룹_14465" data-name="그룹 14465">
        <path id="패스_1349" data-name="패스 1349" d="M7.147,22.5a.386.386,0,0,1-.386-.386V18.47a.385.385,0,0,1,.119-.279l1.9-1.81A15.625,15.625,0,0,1,16.526,3.087a.386.386,0,1,1,.388.668A14.85,14.85,0,0,0,9.551,16.547a.387.387,0,0,1-.119.279l-1.9,1.809v3.482a.386.386,0,0,1-.386.386" transform="translate(0.193 0.087)" fill="#fff" stroke="#fff" stroke-linecap="round" stroke-linejoin="round" stroke-width="1"/>
        <path id="패스_1350" data-name="패스 1350" d="M38.819,22.5a.386.386,0,0,1-.386-.386V18.635l-1.9-1.809a.387.387,0,0,1-.119-.279A14.85,14.85,0,0,0,29.051,3.755a.386.386,0,0,1,.388-.668,15.625,15.625,0,0,1,7.745,13.293l1.9,1.81a.385.385,0,0,1,.119.279v3.647a.386.386,0,0,1-.386.386" transform="translate(0.824 0.087)" fill="#fff" stroke="#fff" stroke-linecap="round" stroke-linejoin="round" stroke-width="1"/>
        <path id="패스_1351" data-name="패스 1351" d="M26.66,12.689a.386.386,0,0,1-.386-.386V.771H19.631V12.3a.386.386,0,1,1-.771,0V.386A.386.386,0,0,1,19.246,0H26.66a.386.386,0,0,1,.386.386V12.3a.386.386,0,0,1-.386.386" transform="translate(0.539 0)" fill="#fff" stroke="#fff" stroke-linecap="round" stroke-linejoin="round" stroke-width="1"/>
        <path id="패스_1352" data-name="패스 1352" d="M19.324,8.085a.386.386,0,0,1-.386-.386V2.4h-2.1V7.7a.386.386,0,0,1-.771,0V2.011a.386.386,0,0,1,.386-.386h2.871a.386.386,0,0,1,.386.386V7.7a.386.386,0,0,1-.386.386" transform="translate(0.459 0.046)" fill="#fff" stroke="#fff" stroke-linecap="round" stroke-linejoin="round" stroke-width="1"/>
        <path id="패스_1353" data-name="패스 1353" d="M29.324,8.085a.386.386,0,0,1-.386-.386V2.4h-2.1V7.7a.386.386,0,0,1-.771,0V2.011a.386.386,0,0,1,.386-.386h2.871a.386.386,0,0,1,.386.386V7.7a.386.386,0,0,1-.386.386" transform="translate(0.745 0.046)" fill="#fff" stroke="#fff" stroke-linecap="round" stroke-linejoin="round" stroke-width="1"/>
        <path id="패스_1354" data-name="패스 1354" d="M23.173,22.184H17.929a13.747,13.747,0,0,1-6.6-1.693.386.386,0,1,1,.372-.676,12.97,12.97,0,0,0,6.227,1.6h5.245a.386.386,0,0,1,0,.771" transform="translate(0.318 0.565)" fill="#fff" stroke="#fff" stroke-linecap="round" stroke-linejoin="round" stroke-width="1"/>
        <path id="패스_1355" data-name="패스 1355" d="M28.094,22.184H22.849a.386.386,0,1,1,0-.771h5.246a12.979,12.979,0,0,0,6.227-1.6.386.386,0,1,1,.371.676,13.746,13.746,0,0,1-6.6,1.693" transform="translate(0.642 0.565)" fill="#fff" stroke="#fff" stroke-linecap="round" stroke-linejoin="round" stroke-width="1"/>
        <path id="패스_1356" data-name="패스 1356" d="M23.3,25.2a110.771,110.771,0,0,1-11.7-.618.392.392,0,0,1-.143-.044L6.963,22.092a.386.386,0,0,1,.368-.679l4.427,2.409a110.2,110.2,0,0,0,23.081,0l4.427-2.409a.386.386,0,0,1,.368.679L35.14,24.537a.392.392,0,0,1-.143.044,110.771,110.771,0,0,1-11.7.618" transform="translate(0.193 0.61)" fill="#fff" stroke="#fff" stroke-linecap="round" stroke-linejoin="round" stroke-width="1"/>
        <path id="패스_1357" data-name="패스 1357" d="M23.186,43.244A7.386,7.386,0,0,1,20.4,42.7a19.31,19.31,0,0,1-6.6-4.443l-.2-.2a6.351,6.351,0,0,1-1.752-3.7L10.68,23.946a.386.386,0,0,1,.766-.086l1.181,10.416a5.583,5.583,0,0,0,1.538,3.247l.194.2A18.546,18.546,0,0,0,20.7,41.99a6.667,6.667,0,0,0,4.982,0,18.561,18.561,0,0,0,6.336-4.269l.193-.2a5.581,5.581,0,0,0,1.539-3.248l1.18-10.415a.386.386,0,0,1,.766.086l-1.18,10.415a6.354,6.354,0,0,1-1.752,3.7l-.194.2a19.309,19.309,0,0,1-6.6,4.443,7.389,7.389,0,0,1-2.782.54" transform="translate(0.305 0.672)" fill="#fff" stroke="#fff" stroke-linecap="round" stroke-linejoin="round" stroke-width="1"/>
        <path id="패스_1358" data-name="패스 1358" d="M23.007,50.621a7.462,7.462,0,0,1-7.166-6.115l-1.125-5.752a.386.386,0,0,1,.3-.453.391.391,0,0,1,.453.305L16.6,44.359a6.686,6.686,0,0,0,6.41,5.49h.125a6.686,6.686,0,0,0,6.408-5.49l1.125-5.752a.4.4,0,0,1,.453-.305.387.387,0,0,1,.305.453L30.3,44.506a7.46,7.46,0,0,1-7.162,6.115Z" transform="translate(0.42 1.094)" fill="#fff" stroke="#fff" stroke-linecap="round" stroke-linejoin="round" stroke-width="1"/>
        <path id="패스_1359" data-name="패스 1359" d="M23.491,58.578H.386A.386.386,0,0,1,0,58.192V54.413a9.339,9.339,0,0,1,6.419-8.882L16.2,42.3a.386.386,0,0,1,.243.732L6.661,46.264a8.568,8.568,0,0,0-5.89,8.149v3.393h22.72a.386.386,0,0,1,0,.771" transform="translate(0 1.208)" fill="#fff" stroke="#fff" stroke-linecap="round" stroke-linejoin="round" stroke-width="1"/>
        <path id="패스_1360" data-name="패스 1360" d="M45.954,58.578H22.85a.386.386,0,1,1,0-.771H45.569V54.413a8.568,8.568,0,0,0-5.89-8.149L29.9,43.033a.386.386,0,1,1,.242-.732l9.776,3.231a9.339,9.339,0,0,1,6.419,8.882v3.779a.386.386,0,0,1-.386.386" transform="translate(0.642 1.208)" fill="#fff" stroke="#fff" stroke-linecap="round" stroke-linejoin="round" stroke-width="1"/>
        <path id="패스_1361" data-name="패스 1361" d="M7.2,58.5a.386.386,0,0,1-.386-.386V45.552a.386.386,0,0,1,.771,0V58.109A.386.386,0,0,1,7.2,58.5" transform="translate(0.195 1.29)" fill="#fff" stroke="#fff" stroke-linecap="round" stroke-linejoin="round" stroke-width="1"/>
        <path id="패스_1362" data-name="패스 1362" d="M11.567,58.536a.386.386,0,0,1-.386-.386V44.108a.386.386,0,0,1,.771,0V58.151a.386.386,0,0,1-.386.386" transform="translate(0.319 1.249)" fill="#fff" stroke="#fff" stroke-linecap="round" stroke-linejoin="round" stroke-width="1"/>
        <path id="패스_1363" data-name="패스 1363" d="M38.5,58.5a.386.386,0,0,1-.386-.386V45.552a.386.386,0,0,1,.771,0V58.109a.386.386,0,0,1-.386.386" transform="translate(1.089 1.29)" fill="#fff" stroke="#fff" stroke-linecap="round" stroke-linejoin="round" stroke-width="1"/>
        <path id="패스_1364" data-name="패스 1364" d="M34.132,58.536a.386.386,0,0,1-.386-.386V44.108a.386.386,0,1,1,.771,0V58.151a.386.386,0,0,1-.386.386" transform="translate(0.964 1.249)" fill="#fff" stroke="#fff" stroke-linecap="round" stroke-linejoin="round" stroke-width="1"/>
      </g>
    </g>
    <g id="그룹_14464" data-name="그룹 14464" transform="translate(1086.104 3712.564)">
      <g id="그룹_14466" data-name="그룹 14466" transform="translate(0 0)">
        <path id="패스_17732" data-name="패스 17732" d="M18.637,20.6a.146.146,0,0,1-.1-.043L14.2,16.226a.927.927,0,0,0-.659-.272H2.067A2.069,2.069,0,0,1,0,13.887V2.067A2.069,2.069,0,0,1,2.067,0H19.716a2.069,2.069,0,0,1,2.067,2.067v11.82a2.069,2.069,0,0,1-2.067,2.067.934.934,0,0,0-.933.933v3.567a.146.146,0,0,1-.146.146M2.067.291A1.778,1.778,0,0,0,.291,2.067v11.82a1.778,1.778,0,0,0,1.776,1.776H13.544a1.214,1.214,0,0,1,.864.357L18.491,20.1V16.887a1.226,1.226,0,0,1,1.225-1.225,1.778,1.778,0,0,0,1.776-1.776V2.067A1.777,1.777,0,0,0,19.716.291Z" fill="#fff" stroke="#fff" stroke-linecap="round" stroke-linejoin="round" stroke-width="1.5"/>
      </g>
    </g>
  </g>
</svg>
