<svg xmlns="http://www.w3.org/2000/svg" width="162.707" height="54.545" viewBox="0 0 162.707 54.545">
  <g id="그룹_14509" data-name="그룹 14509" transform="translate(23548.4 18836.4)">
    <g id="그룹_14469" data-name="그룹 14469" transform="translate(-23463 -18836)">
      <g id="그룹_14461" data-name="그룹 14461" transform="translate(0 0)">
        <path id="패스_17715" data-name="패스 17715" d="M74.085,44.083H2.822A2.825,2.825,0,0,1,0,41.26V37.083A2.825,2.825,0,0,1,2.822,34.26H74.085a2.825,2.825,0,0,1,2.822,2.823V41.26a2.825,2.825,0,0,1-2.822,2.823M2.822,35.222a1.863,1.863,0,0,0-1.86,1.861V41.26a1.864,1.864,0,0,0,1.86,1.861H74.085a1.864,1.864,0,0,0,1.86-1.861V37.083a1.863,1.863,0,0,0-1.86-1.861Z" transform="translate(0 9.662)" fill="#fff" stroke="#fff" stroke-linecap="round" stroke-linejoin="round" stroke-width="0.8"/>
        <path id="패스_17716" data-name="패스 17716" d="M69.4,44.883a.481.481,0,0,1-.481-.481V2.854A1.894,1.894,0,0,0,67.026.962H7.347A1.894,1.894,0,0,0,5.454,2.854V44.4a.481.481,0,1,1-.962,0V2.854A2.858,2.858,0,0,1,7.347,0H67.026a2.858,2.858,0,0,1,2.855,2.854V44.4a.481.481,0,0,1-.481.481" transform="translate(1.267)" fill="#fff" stroke="#fff" stroke-linecap="round" stroke-linejoin="round" stroke-width="0.8"/>
        <path id="패스_17717" data-name="패스 17717" d="M49.009,4.665H5.094a.551.551,0,0,1-.6-.481.551.551,0,0,1,.6-.481H49.009a.552.552,0,0,1,.6.481.552.552,0,0,1-.6.481" transform="translate(1.267 1.044)" fill="#fff" stroke="#fff" stroke-linecap="round" stroke-linejoin="round" stroke-width="0.8"/>
        <path id="패스_17718" data-name="패스 17718" d="M59.9,4.665H38.666a.481.481,0,1,1,0-.962H59.9a.481.481,0,0,1,0,.962" transform="translate(10.768 1.044)" fill="#fff" stroke="#fff" stroke-linecap="round" stroke-linejoin="round" stroke-width="0.8"/>
        <path id="패스_17719" data-name="패스 17719" d="M53.893,24.46H41.158a.481.481,0,0,1,0-.962H53.893a.481.481,0,0,1,0,.962" transform="translate(11.471 6.627)" fill="#fff" stroke="#fff" stroke-linecap="round" stroke-linejoin="round" stroke-width="0.8"/>
        <path id="패스_17720" data-name="패스 17720" d="M49.45,26.83H41.158a.481.481,0,1,1,0-.962H49.45a.481.481,0,0,1,0,.962" transform="translate(11.471 7.295)" fill="#fff" stroke="#fff" stroke-linecap="round" stroke-linejoin="round" stroke-width="0.8"/>
        <path id="패스_17721" data-name="패스 17721" d="M52.181,29.2h-4.95a.481.481,0,0,1,0-.962h4.95a.481.481,0,1,1,0,.962" transform="translate(13.184 7.963)" fill="#fff" stroke="#fff" stroke-linecap="round" stroke-linejoin="round" stroke-width="0.8"/>
        <path id="패스_17722" data-name="패스 17722" d="M45.3,29.2H41.159a.481.481,0,1,1,0-.962H45.3a.481.481,0,1,1,0,.962" transform="translate(11.471 7.963)" fill="#fff" stroke="#fff" stroke-linecap="round" stroke-linejoin="round" stroke-width="0.8"/>
        <path id="패스_17723" data-name="패스 17723" d="M52.171,31.569H41.159a.481.481,0,1,1,0-.962H52.171a.481.481,0,0,1,0,.962" transform="translate(11.471 8.631)" fill="#fff" stroke="#fff" stroke-linecap="round" stroke-linejoin="round" stroke-width="0.8"/>
        <path id="패스_17724" data-name="패스 17724" d="M49.457,15.308H42.417a2.287,2.287,0,0,1-2.283-2.285V9.986A2.286,2.286,0,0,1,42.417,7.7h7.039a2.286,2.286,0,0,1,2.285,2.285v3.038a2.287,2.287,0,0,1-2.285,2.285M42.417,8.663A1.324,1.324,0,0,0,41.1,9.986v3.038a1.324,1.324,0,0,0,1.322,1.323h7.039a1.324,1.324,0,0,0,1.323-1.323V9.986a1.324,1.324,0,0,0-1.323-1.323Z" transform="translate(11.318 2.172)" fill="#fff" stroke="#fff" stroke-linecap="round" stroke-linejoin="round" stroke-width="0.8"/>
        <path id="패스_17725" data-name="패스 17725" d="M4.973,40.191a.481.481,0,0,1-.481-.481V37.432a.481.481,0,0,1,.962,0V39.71a.481.481,0,0,1-.481.481" transform="translate(1.267 10.42)" fill="#fff" stroke="#fff" stroke-linecap="round" stroke-linejoin="round" stroke-width="0.8"/>
        <path id="패스_17726" data-name="패스 17726" d="M7.121,40.191a.481.481,0,0,1-.481-.481V37.432a.481.481,0,0,1,.962,0V39.71a.481.481,0,0,1-.481.481" transform="translate(1.873 10.42)" fill="#fff" stroke="#fff" stroke-linecap="round" stroke-linejoin="round" stroke-width="0.8"/>
        <path id="패스_17727" data-name="패스 17727" d="M9.268,40.191a.481.481,0,0,1-.481-.481V37.432a.481.481,0,0,1,.962,0V39.71a.481.481,0,0,1-.481.481" transform="translate(2.478 10.42)" fill="#fff" stroke="#fff" stroke-linecap="round" stroke-linejoin="round" stroke-width="0.8"/>
        <path id="패스_17728" data-name="패스 17728" d="M11.416,40.191a.481.481,0,0,1-.481-.481V37.432a.481.481,0,0,1,.962,0V39.71a.481.481,0,0,1-.481.481" transform="translate(3.084 10.42)" fill="#fff" stroke="#fff" stroke-linecap="round" stroke-linejoin="round" stroke-width="0.8"/>
        <path id="패스_17729" data-name="패스 17729" d="M27.621,37.323H23.037a.365.365,0,0,1-.364-.364V34.68c-.363-.081-.727-.178-1.087-.292l-1.138,1.974a.371.371,0,0,1-.222.171.376.376,0,0,1-.276-.037L15.981,34.2a.365.365,0,0,1-.133-.5L16.99,31.73q-.415-.379-.795-.795l-1.978,1.141a.364.364,0,0,1-.5-.132l-2.291-3.969a.365.365,0,0,1,.135-.5l1.973-1.14c-.114-.359-.212-.723-.291-1.087H10.966a.364.364,0,0,1-.364-.364V20.3a.364.364,0,0,1,.364-.364h2.279c.079-.364.177-.728.291-1.087l-1.973-1.14a.365.365,0,0,1-.135-.5l2.291-3.969a.363.363,0,0,1,.5-.132L16.2,14.256c.254-.277.518-.544.795-.795l-1.142-1.977a.364.364,0,0,1,.133-.5L19.95,8.7a.363.363,0,0,1,.5.133L21.586,10.8c.359-.113.723-.21,1.087-.291V8.232a.365.365,0,0,1,.364-.364h4.583a.364.364,0,0,1,.363.364v2.279c.365.081.729.178,1.088.292l1.14-1.974a.365.365,0,0,1,.5-.133l3.968,2.291a.365.365,0,0,1,.135.5l-1.142,1.977c.277.254.544.519.794.795l1.978-1.141a.365.365,0,0,1,.5.132l2.291,3.969a.366.366,0,0,1-.133.5l-1.974,1.14q.171.538.292,1.087h2.279a.364.364,0,0,1,.363.364v4.582a.364.364,0,0,1-.363.364H37.414c-.081.365-.178.729-.292,1.087l1.974,1.14a.366.366,0,0,1,.133.5l-2.291,3.969a.366.366,0,0,1-.5.132l-1.977-1.141q-.377.413-.795.795l1.142,1.977a.365.365,0,0,1-.135.5L30.709,36.5a.367.367,0,0,1-.5-.133l-1.14-1.974c-.359.114-.723.212-1.088.292v2.279a.364.364,0,0,1-.363.364M23.4,36.6h3.855V34.382a.364.364,0,0,1,.295-.356,11.774,11.774,0,0,0,1.569-.42.368.368,0,0,1,.433.162l1.105,1.917L34,33.756l-1.108-1.918a.363.363,0,0,1,.077-.456,11.807,11.807,0,0,0,1.146-1.147.367.367,0,0,1,.458-.077l1.917,1.108,1.928-3.338L36.5,26.82a.362.362,0,0,1-.162-.433,11.62,11.62,0,0,0,.42-1.569.364.364,0,0,1,.356-.295h2.213V20.668H37.116a.363.363,0,0,1-.356-.294,11.483,11.483,0,0,0-.42-1.569.362.362,0,0,1,.162-.433l1.915-1.106-1.928-3.338-1.917,1.108a.367.367,0,0,1-.458-.077,11.807,11.807,0,0,0-1.146-1.147.363.363,0,0,1-.077-.456L34,11.436l-3.34-1.928-1.105,1.915a.364.364,0,0,1-.433.163,11.774,11.774,0,0,0-1.569-.42.365.365,0,0,1-.295-.358V8.6H23.4v2.211a.365.365,0,0,1-.295.358,11.722,11.722,0,0,0-1.569.42.364.364,0,0,1-.433-.163L20,9.508l-3.338,1.928,1.108,1.918a.364.364,0,0,1-.077.456,11.68,11.68,0,0,0-1.147,1.147.364.364,0,0,1-.456.077L14.17,13.927l-1.928,3.338,1.915,1.106a.363.363,0,0,1,.162.433,11.627,11.627,0,0,0-.419,1.569.364.364,0,0,1-.358.294H11.33v3.855h2.211a.365.365,0,0,1,.358.295,11.576,11.576,0,0,0,.419,1.569.363.363,0,0,1-.162.433l-1.915,1.106,1.928,3.338,1.918-1.108a.364.364,0,0,1,.456.077,11.821,11.821,0,0,0,1.147,1.147.364.364,0,0,1,.077.456l-1.108,1.918L20,35.684,21.1,33.767a.365.365,0,0,1,.433-.162,11.735,11.735,0,0,0,1.569.42.364.364,0,0,1,.295.356Z" transform="translate(2.99 2.219)" fill="#fff" stroke="#fff" stroke-linecap="round" stroke-linejoin="round" stroke-width="0.8"/>
        <path id="패스_17730" data-name="패스 17730" d="M23.449,26.893a6.177,6.177,0,1,1,6.177-6.177,6.184,6.184,0,0,1-6.177,6.177m0-11.627a5.449,5.449,0,1,0,5.45,5.45,5.456,5.456,0,0,0-5.45-5.45" transform="translate(4.871 4.1)" fill="#fff" stroke="#fff" stroke-linecap="round" stroke-linejoin="round" stroke-width="0.8"/>
        <path id="패스_17731" data-name="패스 17731" d="M15.964,21.55a.364.364,0,0,1-.364-.364,8.331,8.331,0,0,1,8.32-8.32.364.364,0,1,1,0,.728,7.6,7.6,0,0,0-7.592,7.592.364.364,0,0,1-.364.364" transform="translate(4.399 3.628)" fill="#fff" stroke="#fff" stroke-linecap="round" stroke-linejoin="round" stroke-width="0.8"/>
      </g>
    </g>
    <g id="그룹_14488" data-name="그룹 14488" transform="translate(-23548 -18836)">
      <g id="그룹_14461-2" data-name="그룹 14461" transform="translate(0 0)">
        <path id="패스_17715-2" data-name="패스 17715" d="M74.085,44.083H2.822A2.825,2.825,0,0,1,0,41.26V37.083A2.825,2.825,0,0,1,2.822,34.26H74.085a2.825,2.825,0,0,1,2.822,2.823V41.26a2.825,2.825,0,0,1-2.822,2.823M2.822,35.222a1.863,1.863,0,0,0-1.86,1.861V41.26a1.864,1.864,0,0,0,1.86,1.861H74.085a1.864,1.864,0,0,0,1.86-1.861V37.083a1.863,1.863,0,0,0-1.86-1.861Z" transform="translate(0 9.662)" fill="#1f2a65" stroke="#1f2a65" stroke-linecap="round" stroke-linejoin="round" stroke-width="0.8"/>
        <path id="패스_17716-2" data-name="패스 17716" d="M69.4,44.883a.481.481,0,0,1-.481-.481V2.854A1.894,1.894,0,0,0,67.026.962H7.347A1.894,1.894,0,0,0,5.454,2.854V44.4a.481.481,0,1,1-.962,0V2.854A2.858,2.858,0,0,1,7.347,0H67.026a2.858,2.858,0,0,1,2.855,2.854V44.4a.481.481,0,0,1-.481.481" transform="translate(1.267)" fill="#1f2a65" stroke="#1f2a65" stroke-linecap="round" stroke-linejoin="round" stroke-width="0.8"/>
        <path id="패스_17717-2" data-name="패스 17717" d="M49.009,4.665H5.094a.551.551,0,0,1-.6-.481.551.551,0,0,1,.6-.481H49.009a.552.552,0,0,1,.6.481.552.552,0,0,1-.6.481" transform="translate(1.267 1.044)" fill="#1f2a65" stroke="#1f2a65" stroke-linecap="round" stroke-linejoin="round" stroke-width="0.8"/>
        <path id="패스_17718-2" data-name="패스 17718" d="M59.9,4.665H38.666a.481.481,0,1,1,0-.962H59.9a.481.481,0,0,1,0,.962" transform="translate(10.768 1.044)" fill="#1f2a65" stroke="#1f2a65" stroke-linecap="round" stroke-linejoin="round" stroke-width="0.8"/>
        <path id="패스_17719-2" data-name="패스 17719" d="M53.893,24.46H41.158a.481.481,0,0,1,0-.962H53.893a.481.481,0,0,1,0,.962" transform="translate(11.471 6.627)" fill="#1f2a65" stroke="#1f2a65" stroke-linecap="round" stroke-linejoin="round" stroke-width="0.8"/>
        <path id="패스_17720-2" data-name="패스 17720" d="M49.45,26.83H41.158a.481.481,0,1,1,0-.962H49.45a.481.481,0,0,1,0,.962" transform="translate(11.471 7.295)" fill="#1f2a65" stroke="#1f2a65" stroke-linecap="round" stroke-linejoin="round" stroke-width="0.8"/>
        <path id="패스_17721-2" data-name="패스 17721" d="M52.181,29.2h-4.95a.481.481,0,0,1,0-.962h4.95a.481.481,0,1,1,0,.962" transform="translate(13.184 7.963)" fill="#1f2a65" stroke="#1f2a65" stroke-linecap="round" stroke-linejoin="round" stroke-width="0.8"/>
        <path id="패스_17722-2" data-name="패스 17722" d="M45.3,29.2H41.159a.481.481,0,1,1,0-.962H45.3a.481.481,0,1,1,0,.962" transform="translate(11.471 7.963)" fill="#1f2a65" stroke="#1f2a65" stroke-linecap="round" stroke-linejoin="round" stroke-width="0.8"/>
        <path id="패스_17723-2" data-name="패스 17723" d="M52.171,31.569H41.159a.481.481,0,1,1,0-.962H52.171a.481.481,0,0,1,0,.962" transform="translate(11.471 8.631)" fill="#1f2a65" stroke="#1f2a65" stroke-linecap="round" stroke-linejoin="round" stroke-width="0.8"/>
        <path id="패스_17724-2" data-name="패스 17724" d="M49.457,15.308H42.417a2.287,2.287,0,0,1-2.283-2.285V9.986A2.286,2.286,0,0,1,42.417,7.7h7.039a2.286,2.286,0,0,1,2.285,2.285v3.038a2.287,2.287,0,0,1-2.285,2.285M42.417,8.663A1.324,1.324,0,0,0,41.1,9.986v3.038a1.324,1.324,0,0,0,1.322,1.323h7.039a1.324,1.324,0,0,0,1.323-1.323V9.986a1.324,1.324,0,0,0-1.323-1.323Z" transform="translate(11.318 2.172)" fill="#1f2a65" stroke="#1f2a65" stroke-linecap="round" stroke-linejoin="round" stroke-width="0.8"/>
        <path id="패스_17725-2" data-name="패스 17725" d="M4.973,40.191a.481.481,0,0,1-.481-.481V37.432a.481.481,0,0,1,.962,0V39.71a.481.481,0,0,1-.481.481" transform="translate(1.267 10.42)" fill="#1f2a65" stroke="#1f2a65" stroke-linecap="round" stroke-linejoin="round" stroke-width="0.8"/>
        <path id="패스_17726-2" data-name="패스 17726" d="M7.121,40.191a.481.481,0,0,1-.481-.481V37.432a.481.481,0,0,1,.962,0V39.71a.481.481,0,0,1-.481.481" transform="translate(1.873 10.42)" fill="#1f2a65" stroke="#1f2a65" stroke-linecap="round" stroke-linejoin="round" stroke-width="0.8"/>
        <path id="패스_17727-2" data-name="패스 17727" d="M9.268,40.191a.481.481,0,0,1-.481-.481V37.432a.481.481,0,0,1,.962,0V39.71a.481.481,0,0,1-.481.481" transform="translate(2.478 10.42)" fill="#1f2a65" stroke="#1f2a65" stroke-linecap="round" stroke-linejoin="round" stroke-width="0.8"/>
        <path id="패스_17728-2" data-name="패스 17728" d="M11.416,40.191a.481.481,0,0,1-.481-.481V37.432a.481.481,0,0,1,.962,0V39.71a.481.481,0,0,1-.481.481" transform="translate(3.084 10.42)" fill="#1f2a65" stroke="#1f2a65" stroke-linecap="round" stroke-linejoin="round" stroke-width="0.8"/>
        <path id="패스_17729-2" data-name="패스 17729" d="M27.621,37.323H23.037a.365.365,0,0,1-.364-.364V34.68c-.363-.081-.727-.178-1.087-.292l-1.138,1.974a.371.371,0,0,1-.222.171.376.376,0,0,1-.276-.037L15.981,34.2a.365.365,0,0,1-.133-.5L16.99,31.73q-.415-.379-.795-.795l-1.978,1.141a.364.364,0,0,1-.5-.132l-2.291-3.969a.365.365,0,0,1,.135-.5l1.973-1.14c-.114-.359-.212-.723-.291-1.087H10.966a.364.364,0,0,1-.364-.364V20.3a.364.364,0,0,1,.364-.364h2.279c.079-.364.177-.728.291-1.087l-1.973-1.14a.365.365,0,0,1-.135-.5l2.291-3.969a.363.363,0,0,1,.5-.132L16.2,14.256c.254-.277.518-.544.795-.795l-1.142-1.977a.364.364,0,0,1,.133-.5L19.95,8.7a.363.363,0,0,1,.5.133L21.586,10.8c.359-.113.723-.21,1.087-.291V8.232a.365.365,0,0,1,.364-.364h4.583a.364.364,0,0,1,.363.364v2.279c.365.081.729.178,1.088.292l1.14-1.974a.365.365,0,0,1,.5-.133l3.968,2.291a.365.365,0,0,1,.135.5l-1.142,1.977c.277.254.544.519.794.795l1.978-1.141a.365.365,0,0,1,.5.132l2.291,3.969a.366.366,0,0,1-.133.5l-1.974,1.14q.171.538.292,1.087h2.279a.364.364,0,0,1,.363.364v4.582a.364.364,0,0,1-.363.364H37.414c-.081.365-.178.729-.292,1.087l1.974,1.14a.366.366,0,0,1,.133.5l-2.291,3.969a.366.366,0,0,1-.5.132l-1.977-1.141q-.377.413-.795.795l1.142,1.977a.365.365,0,0,1-.135.5L30.709,36.5a.367.367,0,0,1-.5-.133l-1.14-1.974c-.359.114-.723.212-1.088.292v2.279a.364.364,0,0,1-.363.364M23.4,36.6h3.855V34.382a.364.364,0,0,1,.295-.356,11.774,11.774,0,0,0,1.569-.42.368.368,0,0,1,.433.162l1.105,1.917L34,33.756l-1.108-1.918a.363.363,0,0,1,.077-.456,11.807,11.807,0,0,0,1.146-1.147.367.367,0,0,1,.458-.077l1.917,1.108,1.928-3.338L36.5,26.82a.362.362,0,0,1-.162-.433,11.62,11.62,0,0,0,.42-1.569.364.364,0,0,1,.356-.295h2.213V20.668H37.116a.363.363,0,0,1-.356-.294,11.483,11.483,0,0,0-.42-1.569.362.362,0,0,1,.162-.433l1.915-1.106-1.928-3.338-1.917,1.108a.367.367,0,0,1-.458-.077,11.807,11.807,0,0,0-1.146-1.147.363.363,0,0,1-.077-.456L34,11.436l-3.34-1.928-1.105,1.915a.364.364,0,0,1-.433.163,11.774,11.774,0,0,0-1.569-.42.365.365,0,0,1-.295-.358V8.6H23.4v2.211a.365.365,0,0,1-.295.358,11.722,11.722,0,0,0-1.569.42.364.364,0,0,1-.433-.163L20,9.508l-3.338,1.928,1.108,1.918a.364.364,0,0,1-.077.456,11.68,11.68,0,0,0-1.147,1.147.364.364,0,0,1-.456.077L14.17,13.927l-1.928,3.338,1.915,1.106a.363.363,0,0,1,.162.433,11.627,11.627,0,0,0-.419,1.569.364.364,0,0,1-.358.294H11.33v3.855h2.211a.365.365,0,0,1,.358.295,11.576,11.576,0,0,0,.419,1.569.363.363,0,0,1-.162.433l-1.915,1.106,1.928,3.338,1.918-1.108a.364.364,0,0,1,.456.077,11.821,11.821,0,0,0,1.147,1.147.364.364,0,0,1,.077.456l-1.108,1.918L20,35.684,21.1,33.767a.365.365,0,0,1,.433-.162,11.735,11.735,0,0,0,1.569.42.364.364,0,0,1,.295.356Z" transform="translate(2.99 2.219)" fill="#fe0000" stroke="#fe0000" stroke-linecap="round" stroke-linejoin="round" stroke-width="0.8"/>
        <path id="패스_17730-2" data-name="패스 17730" d="M23.449,26.893a6.177,6.177,0,1,1,6.177-6.177,6.184,6.184,0,0,1-6.177,6.177m0-11.627a5.449,5.449,0,1,0,5.45,5.45,5.456,5.456,0,0,0-5.45-5.45" transform="translate(4.871 4.1)" fill="#fe0000" stroke="#fe0000" stroke-linecap="round" stroke-linejoin="round" stroke-width="0.8"/>
        <path id="패스_17731-2" data-name="패스 17731" d="M15.964,21.55a.364.364,0,0,1-.364-.364,8.331,8.331,0,0,1,8.32-8.32.364.364,0,1,1,0,.728,7.6,7.6,0,0,0-7.592,7.592.364.364,0,0,1-.364.364" transform="translate(4.399 3.628)" fill="#fe0000" stroke="#fd0000" stroke-linecap="round" stroke-linejoin="round" stroke-width="0.8"/>
      </g>
    </g>
  </g>
</svg>
