<svg xmlns="http://www.w3.org/2000/svg" width="52.924" height="52.912" viewBox="0 0 52.924 52.912">
  <g id="group_14454" data-name="group 14454" transform="translate(0.711 0.699)">
    <g id="group_189" data-name="group 189" transform="translate(0 0)">
      <path id="path_1269" data-name="path 1269" d="M49.155,23.111H.322a.322.322,0,0,1-.246-.53L17.812,1.6A4.5,4.5,0,0,1,21.255,0H44.51a.322.322,0,1,1,0,.644H21.255a3.858,3.858,0,0,0-2.95,1.37L1.017,22.467H48.861L50.837.644H43.946a.322.322,0,0,1,0-.644H51.19a.322.322,0,0,1,.32.351L49.476,22.819a.323.323,0,0,1-.321.293" transform="translate(0)" fill="#1f2a65" stroke="#fff" stroke-width="1.4"/>
      <path id="path_1271" data-name="path 1271" d="M50.277,34.551H45.444a1.362,1.362,0,0,1-1.36-1.361V31.176a.322.322,0,0,1,.322-.322h4.427a.322.322,0,0,1,0,.644H44.728V33.19a.717.717,0,0,0,.716.717h4.833a.718.718,0,0,0,.717-.717V31.5h-2.6a.322.322,0,0,1,0-.644h2.921a.322.322,0,0,1,.322.322V33.19a1.363,1.363,0,0,1-1.361,1.361" transform="translate(-6.23 -4.36)" fill="#fe0000" stroke="#fff" stroke-width="1.4"/>
      <path id="path_1273" data-name="path 1273" d="M25.79,51.1H.322a.322.322,0,0,1,0-.644H25.958a.322.322,0,0,1,0,.644" transform="translate(0 -7.13)" fill="#fe0000" stroke="#fff" stroke-width="1.4"/>
      <path id="path_1274" data-name="path 1274" d="M53.271,51.1H29.448a.322.322,0,0,1,0-.644H53.271a.322.322,0,0,1,0,.644" transform="translate(-4.116 -7.13)" fill="#fe0000" stroke="#fff" stroke-width="1.4"/>
      <path id="path_1275" data-name="path 1275" d="M38.677,16.442H18.863a.239.239,0,1,1,0-.478H38.447L39.666,3.115H19.618a1.691,1.691,0,0,0-1.269.562L7.47,15.964H19.952a.239.239,0,1,1,0,.478H6.93A.252.252,0,0,1,6.7,16.3a.231.231,0,0,1,.035-.255L17.966,3.369a2.2,2.2,0,0,1,1.652-.732H39.941a.253.253,0,0,1,.184.078.23.23,0,0,1,.065.182L38.926,16.225a.246.246,0,0,1-.249.218" transform="translate(4.731 1.994)" fill="#1f2a65" stroke="#fff" stroke-width="1.4"/>
      <path id="path_1270" data-name="path 1270" d="M49.155,55.21H.322A.322.322,0,0,1,0,54.888v-28.4a.322.322,0,0,1,.644,0V54.566H48.833V26.487a.322.322,0,1,1,.644,0v28.4a.322.322,0,0,1-.322.322" transform="translate(0 -3.698)" fill="#1f2a65" stroke="#fff" stroke-width="1.4"/>
    </g>
  </g>
</svg>
