<svg xmlns="http://www.w3.org/2000/svg" xmlns:xlink="http://www.w3.org/1999/xlink" width="33" height="33.005" viewBox="0 0 33 33.005">
  <defs>
    <clipPath id="clip-path">
      <rect id="사각형_209" data-name="사각형 209" width="33" height="33.005" fill="#06092b"/>
    </clipPath>
  </defs>
  <g id="그룹_126" data-name="그룹 126" clip-path="url(#clip-path)">
    <path id="패스_1212" data-name="패스 1212" d="M31.289,30.3a8.684,8.684,0,0,1-4.81,2.574,11.547,11.547,0,0,1-1.763.133,14.326,14.326,0,0,1-4.087-.627,33.712,33.712,0,0,1-5.392-1.99,27.531,27.531,0,0,1-7.358-5.263,27.264,27.264,0,0,1-5.266-7.363,33.782,33.782,0,0,1-1.99-5.394A13.367,13.367,0,0,1,.135,6.525,8.553,8.553,0,0,1,2.717,1.707,5.251,5.251,0,0,1,6.135,0a2.738,2.738,0,0,1,2.4,1.406l.043.072.037.077a48.887,48.887,0,0,0,4.052,7.232,2.716,2.716,0,0,1-.587,3.73l-.008.008-.011.005-.035.027c-.6.424-1.016.726-1.47,1.054a20.214,20.214,0,0,0,3.636,5.218,19.545,19.545,0,0,0,5.191,3.62c.056-.075.109-.149.163-.221.28-.387.563-.771.928-1.283l.008-.011.005-.008a2.682,2.682,0,0,1,2.15-1.08,2.807,2.807,0,0,1,1.555.475l.008.008.011.005a48.125,48.125,0,0,0,7.232,4.031l.093.045.091.053a2.831,2.831,0,0,1,1.347,2.022c.155,1.155-.4,2.4-1.686,3.812" transform="translate(0 0)" fill="#06092b"/>
  </g>
</svg>
