<svg xmlns="http://www.w3.org/2000/svg" width="93.422" height="93.422" viewBox="0 0 93.422 93.422">
  <g id="group_157" data-name="group 157" transform="translate(-861.077 -2339.314)">
    <path id="path_132" data-name="path 132" d="M92.515,46.757A45.757,45.757,0,1,1,46.757,1,45.758,45.758,0,0,1,92.515,46.757" transform="translate(860.662 2339.258)" fill="#a5d0fd"/>
    <ellipse id="타원_17" data-name="타원 17" cx="45.711" cy="45.711" rx="45.711" ry="45.711" transform="translate(862.077 2340.314)" fill="none" stroke="#2c4e5f" stroke-linecap="round" stroke-linejoin="round" stroke-width="2"/>
    <path id="path_133" data-name="path 133" d="M78.6,70.616a15.2,15.2,0,0,0-15.16-15.16H40.007a15.2,15.2,0,0,0-15.16,15.16V84.1H78.6Z" transform="translate(855.959 2328.518)" fill="#f2f2f2"/>
    <path id="path_134" data-name="path 134" d="M78.6,70.616a15.2,15.2,0,0,0-15.16-15.16H40.007a15.2,15.2,0,0,0-15.16,15.16V84.1H78.6Z" transform="translate(855.959 2328.518)" fill="none" stroke="#2c4e5f" stroke-linecap="round" stroke-linejoin="round" stroke-width="2"/>
    <path id="path_135" data-name="path 135" d="M46.633,50.413,43.3,56.356l6.661,3.617,5.4-4.538v-.975l-4.824-1.723Z" transform="translate(852.318 2329.512)" fill="#f2f2f2"/>
    <path id="path_136" data-name="path 136" d="M46.633,50.413,43.3,56.356l6.661,3.617,5.4-4.538v-.975l-4.824-1.723Z" transform="translate(852.318 2329.512)" fill="none" stroke="#2c4e5f" stroke-linecap="round" stroke-linejoin="round" stroke-width="2"/>
    <path id="path_137" data-name="path 137" d="M67.053,50.413l3.331,5.944-6.661,3.617-5.4-4.538v-.975l4.824-1.723Z" transform="translate(849.355 2329.512)" fill="#f2f2f2"/>
    <path id="path_138" data-name="path 138" d="M67.053,50.413l3.331,5.944-6.661,3.617-5.4-4.538v-.975l4.824-1.723Z" transform="translate(849.355 2329.512)" fill="none" stroke="#2c4e5f" stroke-linecap="round" stroke-linejoin="round" stroke-width="2"/>
    <path id="path_139" data-name="path 139" d="M66.122,28.3a10.336,10.336,0,1,0-20.673,0v2.067H66.122Z" transform="translate(851.895 2335.912)" fill="#999"/>
    <path id="path_140" data-name="path 140" d="M66.122,28.3a10.336,10.336,0,1,0-20.673,0v2.067H66.122Z" transform="translate(851.895 2335.912)" fill="none" stroke="#2c4e5f" stroke-linecap="round" stroke-linejoin="round" stroke-width="2"/>
    <path id="path_141" data-name="path 141" d="M45.449,33.413v7.358a10.336,10.336,0,1,0,20.673,0V33.413Z" transform="translate(851.895 2332.865)" fill="#fff"/>
    <path id="path_142" data-name="path 142" d="M45.449,33.413v7.358a10.336,10.336,0,1,0,20.673,0V33.413Z" transform="translate(851.895 2332.865)" fill="none" stroke="#2c4e5f" stroke-linecap="round" stroke-linejoin="round" stroke-width="2"/>
    <path id="path_143" data-name="path 143" d="M59.412,64.654l2.23-4.234-4.46-3.75-4.46,3.75,2.23,4.234-2.421,11.37,4.651,14.3,4.651-14.3Z" transform="translate(850.498 2328.277)" fill="#a5d0fd"/>
    <path id="path_144" data-name="path 144" d="M59.412,64.654l2.23-4.234-4.46-3.75-4.46,3.75,2.23,4.234-2.421,11.37,4.651,14.3,4.651-14.3Z" transform="translate(850.498 2328.277)" fill="none" stroke="#2c4e5f" stroke-linecap="round" stroke-linejoin="round" stroke-width="2"/>
    <line id="선_40" data-name="선 40" y1="6.769" transform="translate(890.165 2404.818)" fill="#f2f2f2"/>
    <line id="선_41" data-name="선 41" y1="6.769" transform="translate(890.165 2404.818)" fill="none" stroke="#2c4e5f" stroke-linecap="round" stroke-linejoin="round" stroke-width="2"/>
    <line id="선_42" data-name="선 42" y1="6.769" transform="translate(925.194 2404.818)" fill="#f2f2f2"/>
    <line id="선_43" data-name="선 43" y1="6.769" transform="translate(925.194 2404.818)" fill="none" stroke="#2c4e5f" stroke-linecap="round" stroke-linejoin="round" stroke-width="2"/>
  </g>
</svg>
